<svg width="230" height="225" viewBox="0 0 230 225" fill="none" xmlns="http://www.w3.org/2000/svg">
<path d="M170.818 151.849H207.734V123.372H170.818V151.849Z" fill="#EBEBEB"/>
<path d="M173.455 149.361H177.904V144.334H173.455V149.361Z" fill="white"/>
<path d="M196.475 123.444H192.28V129.518H196.475V123.444Z" fill="#FAFAFA"/>
<path d="M196.475 145.687H192.28V151.762H196.475V145.687Z" fill="#FAFAFA"/>
<path d="M180.029 152.043C179.963 152.043 179.912 145.779 179.912 138.055C179.912 130.331 179.963 124.067 180.029 124.067C180.096 124.067 180.147 130.331 180.147 138.055C180.147 145.779 180.096 152.043 180.029 152.043Z" fill="#E0E0E0"/>
<path d="M155.763 200.882H219.458V151.751H155.763V200.882Z" fill="#EBEBEB"/>
<path d="M160.314 196.596H167.988V187.921H160.314V196.596Z" fill="white"/>
<path d="M200.025 151.879H192.791V162.362H200.025V151.879Z" fill="#FAFAFA"/>
<path d="M200.025 190.251H192.791V200.734H200.025V190.251Z" fill="#FAFAFA"/>
<path d="M171.661 201.219C171.549 201.219 171.457 190.414 171.457 177.086C171.457 163.757 171.549 152.952 171.661 152.952C171.774 152.952 171.861 163.757 171.861 177.086C171.861 190.414 171.774 201.219 171.661 201.219Z" fill="#E0E0E0"/>
<path d="M217.436 49.5667L220.849 56.4788L228.476 57.5874L222.958 62.972L224.261 70.5686L217.436 66.9823L210.611 70.5686L211.913 62.972L206.396 57.5874L214.023 56.4788L217.436 49.5667Z" fill="#EBEBEB"/>
<path d="M14.2559 138.847L16.4067 143.205L21.214 143.899L17.735 147.292L18.5575 152.084L14.2559 149.82L9.95439 152.084L10.7769 147.292L7.29785 143.899L12.1052 143.205L14.2559 138.847Z" fill="#EBEBEB"/>
<path d="M16.9231 100.884L21.6998 110.56L32.377 112.113L24.6526 119.643L26.4765 130.28L16.9231 125.258L7.37493 130.28L9.19874 119.643L1.46924 112.113L12.1465 110.56L16.9231 100.884Z" fill="#EBEBEB"/>
<path d="M214.396 80.7861L216.454 84.96L221.057 85.6292L217.727 88.8732L218.513 93.4558L214.396 91.2948L210.278 93.4558L211.065 88.8732L207.734 85.6292L212.337 84.96L214.396 80.7861Z" fill="#EBEBEB"/>
<path d="M146.848 13.2231L148.907 17.3919L153.51 18.0611L150.179 21.3103L150.966 25.8928L146.848 23.7267L142.731 25.8928L143.517 21.3103L140.187 18.0611L144.789 17.3919L146.848 13.2231Z" fill="#EBEBEB"/>
<path d="M193.936 57.8428L195.285 60.5708L198.299 61.0102L196.117 63.1354L196.633 66.1342L193.936 64.7191L191.244 66.1342L191.76 63.1354L189.578 61.0102L192.592 60.5708L193.936 57.8428Z" fill="#EBEBEB"/>
<path d="M69.6401 195.625L72.266 200.938L78.1308 201.791L73.8855 205.93L74.8919 211.774L69.6401 209.015L64.3935 211.774L65.3948 205.93L61.1494 201.791L67.0193 200.938L69.6401 195.625Z" fill="#EBEBEB"/>
<path d="M76.5673 190.338L77.6504 192.534L80.077 192.887L78.3196 194.598L78.7334 197.015L76.5673 195.87L74.4012 197.015L74.815 194.598L73.0576 192.887L75.4843 192.534L76.5673 190.338Z" fill="#EBEBEB"/>
<path d="M111.779 106.989L114.088 111.664L119.248 112.415L115.514 116.052L116.398 121.192L111.779 118.765L107.166 121.192L108.05 116.052L104.315 112.415L109.475 111.664L111.779 106.989Z" fill="url(#paint0_linear_158_5185)"/>
<path d="M122.788 102.846L123.877 105.048L126.303 105.4L124.546 107.117L124.96 109.539L122.788 108.394L120.612 109.539L121.031 107.117L119.269 105.4L121.7 105.048L122.788 102.846Z" fill="url(#paint1_linear_158_5185)"/>
<path d="M97.087 126.681L98.9057 121.031C97.1725 117.54 96.6462 113.573 97.4092 109.752C98.1721 105.93 100.181 102.469 103.122 99.9116C106.063 97.3541 109.769 95.8444 113.659 95.6189C117.55 95.3934 121.406 96.4649 124.622 98.6655C127.838 100.866 130.234 104.072 131.433 107.78C132.633 111.488 132.568 115.489 131.25 119.156C129.931 122.824 127.434 125.95 124.148 128.046C120.862 130.142 116.974 131.088 113.093 130.737C109.306 130.479 105.722 128.928 102.942 126.344L97.087 126.681Z" fill="#FAFAFA"/>
<path d="M97.0871 126.681L97.4754 126.65L98.6044 126.569L102.942 126.272C105.092 128.261 107.74 129.631 110.605 130.237C111.489 130.433 112.388 130.561 113.292 130.62L114.722 130.676C115.203 130.676 115.698 130.62 116.194 130.594C120.675 130.188 124.828 128.071 127.791 124.684C129.46 122.802 130.699 120.579 131.423 118.17C132.164 115.596 132.314 112.887 131.862 110.246C131.75 109.567 131.593 108.897 131.392 108.239C131.302 107.905 131.191 107.578 131.06 107.258C130.932 106.931 130.82 106.604 130.682 106.282C130.113 104.983 129.393 103.755 128.536 102.624C128.11 102.06 127.647 101.525 127.152 101.02C126.912 100.763 126.656 100.52 126.386 100.295C126.125 100.065 125.875 99.8143 125.599 99.6049L124.761 98.9816L124.342 98.6751L123.893 98.4094L123.009 97.8986C122.707 97.73 122.391 97.6022 122.084 97.449C119.736 96.3378 117.169 95.7674 114.571 95.7798C111.974 95.7922 109.412 96.387 107.075 97.5205C103.025 99.4656 99.8796 102.896 98.2928 107.099C98.2059 107.334 98.1242 107.569 98.0424 107.799C97.95 108.026 97.8765 108.26 97.8228 108.499C97.7053 108.969 97.5929 109.434 97.4805 109.889C97.3253 110.78 97.2196 111.678 97.1637 112.581C97.0493 115.501 97.6638 118.403 98.9518 121.026L97.5826 125.205L97.2199 126.288C97.1382 126.533 97.0922 126.661 97.0922 126.661C97.0922 126.661 97.1229 126.543 97.1995 126.303L97.5264 125.23L98.8394 120.995V121.036C97.5171 118.408 96.8776 115.49 96.9798 112.55C97.0277 111.638 97.1284 110.729 97.2812 109.827C97.3936 109.368 97.5111 108.898 97.6235 108.423C97.6778 108.181 97.7496 107.944 97.8381 107.712C97.9249 107.477 98.0067 107.242 98.0935 107.002C98.9467 104.711 100.266 102.621 101.969 100.866C103.672 99.1104 105.72 97.7278 107.985 96.8052C110.25 95.8827 112.681 95.4405 115.126 95.5064C117.57 95.5724 119.975 96.1451 122.186 97.1884C122.498 97.3366 122.82 97.4694 123.126 97.6431L124.025 98.1795L124.475 98.4503L124.904 98.7619L125.752 99.3903C126.033 99.61 126.289 99.8603 126.554 100.09C126.826 100.321 127.086 100.566 127.331 100.826C127.833 101.341 128.302 101.887 128.736 102.461C129.609 103.598 130.344 104.834 130.927 106.144C131.065 106.471 131.178 106.808 131.305 107.135C131.441 107.468 131.555 107.809 131.648 108.157C131.85 108.827 132.007 109.509 132.118 110.2C132.579 112.88 132.425 115.63 131.668 118.242C130.942 120.697 129.689 122.963 127.995 124.883C124.987 128.302 120.781 130.435 116.245 130.84C115.734 130.84 115.223 130.911 114.753 130.911L113.307 130.85C112.394 130.786 111.487 130.653 110.595 130.451C107.719 129.822 105.069 128.419 102.931 126.395H102.972L98.5942 126.625L97.4805 126.676C97.2097 126.681 97.0871 126.681 97.0871 126.681Z" fill="#263238"/>
<path d="M104.683 112.55L107.58 110.037L112.459 115.049L123.401 105.935L125.716 108.821L111.697 120.234L104.683 112.55Z" fill="url(#paint2_linear_158_5185)"/>
<path d="M180.779 177.915L82.814 199.75C82.247 199.879 81.66 199.895 81.0867 199.797C80.5134 199.699 79.9652 199.488 79.4737 199.177C78.9822 198.866 78.5571 198.461 78.223 197.985C77.8888 197.509 77.6521 196.971 77.5265 196.403L45.7553 53.7421C45.6288 53.1769 45.615 52.5922 45.7147 52.0216C45.8145 51.451 46.0258 50.9056 46.3367 50.4168C46.6475 49.928 47.0517 49.5054 47.5262 49.173C48.0006 48.8407 48.536 48.6052 49.1015 48.4801L147.067 26.6454C147.632 26.5188 148.217 26.505 148.788 26.6047C149.359 26.7043 149.905 26.9156 150.394 27.2264C150.883 27.5372 151.306 27.9414 151.639 28.4159C151.972 28.8904 152.208 29.4259 152.334 29.9917L184.125 172.653C184.252 173.218 184.266 173.803 184.166 174.373C184.066 174.944 183.855 175.489 183.544 175.978C183.233 176.467 182.829 176.89 182.354 177.222C181.88 177.554 181.345 177.79 180.779 177.915Z" fill="#E0E0E0"/>
<path d="M180.778 177.915L181.105 177.823C181.422 177.719 181.729 177.584 182.019 177.419C182.496 177.139 182.917 176.774 183.261 176.341C183.73 175.749 184.038 175.045 184.155 174.298C184.229 173.846 184.229 173.386 184.155 172.934C184.073 172.459 183.945 171.958 183.833 171.437C183.598 170.415 183.322 169.25 183.067 168.014C182.511 165.538 181.873 162.689 181.151 159.467C178.275 146.609 174.116 128.003 168.977 105.008C166.422 93.5135 163.602 80.9205 160.583 67.3977C159.078 60.6406 157.52 53.6587 155.909 46.452C155.108 42.8486 154.294 39.1958 153.467 35.4937C153.048 33.6444 152.634 31.7797 152.21 29.9048C151.98 28.9703 151.442 28.1403 150.683 27.5482C149.924 26.9562 148.988 26.6364 148.026 26.6403C147.546 26.6509 147.069 26.7196 146.606 26.8446L145.175 27.1614L142.299 27.8051L136.495 29.0976L124.684 31.7337L100.346 37.1745L49.1362 48.5772C48.0537 48.8171 47.1053 49.4648 46.4878 50.3857C45.8704 51.3066 45.6314 52.4299 45.8206 53.5224C46.2855 55.6936 46.7862 57.87 47.2613 60.0361C48.2285 64.3614 49.1873 68.6613 50.1375 72.9356L55.7571 98.1778C59.4456 114.725 63.0013 130.664 66.3883 145.888C69.7754 161.112 72.9888 175.519 76.003 189.062C76.3776 190.765 76.7505 192.441 77.1218 194.089C77.3108 194.917 77.4794 195.755 77.6786 196.567C77.8932 197.367 78.333 198.089 78.9456 198.646C79.5543 199.195 80.3046 199.564 81.1117 199.709C81.5119 199.774 81.9191 199.786 82.3225 199.744C82.7209 199.693 83.1245 199.596 83.523 199.504L88.2792 198.447L106.328 194.431L160.798 182.329L175.613 179.049L179.465 178.201L180.778 177.915L179.47 178.221L175.618 179.09L160.803 182.405L106.344 194.58L88.315 198.61L83.5588 199.673C83.1603 199.76 82.7618 199.862 82.3429 199.918C81.924 199.961 81.5014 199.947 81.0862 199.877C80.2409 199.731 79.4553 199.345 78.8217 198.767C78.1881 198.189 77.733 197.441 77.51 196.613C77.3057 195.79 77.1371 194.963 76.9481 194.135C76.5769 192.476 76.2022 190.801 75.8242 189.108C72.81 175.585 69.5864 161.138 66.1942 145.934C62.802 130.731 59.2463 114.771 55.5527 98.2238L49.9331 72.9867C48.9829 68.7158 48.0242 64.4125 47.0569 60.0769C46.5767 57.9108 46.0812 55.7447 45.6111 53.5531C45.4145 52.4086 45.6662 51.2324 46.3141 50.2687C46.962 49.3049 47.9562 48.6278 49.0902 48.3779L100.305 36.9599L124.658 31.5549L136.465 28.9239L142.268 27.6314L145.15 26.957L146.58 26.6403C147.052 26.5178 147.538 26.4527 148.026 26.4462C149.023 26.4485 149.991 26.7826 150.777 27.3959C151.563 28.0092 152.123 28.8667 152.368 29.8333C152.787 31.7133 153.206 33.5728 153.62 35.4273C154.454 39.1328 155.275 42.7805 156.082 46.3702C157.68 53.5735 159.234 60.5554 160.747 67.316C163.756 80.8388 166.555 93.4318 169.115 104.932C174.223 127.921 178.361 146.542 181.222 159.406C181.932 162.619 182.566 165.48 183.118 167.953C183.388 169.194 183.629 170.334 183.874 171.381C183.986 171.892 184.114 172.403 184.191 172.878C184.267 173.334 184.267 173.8 184.191 174.257C184.074 175.018 183.761 175.734 183.281 176.336C182.932 176.768 182.508 177.133 182.03 177.414C181.735 177.58 181.423 177.712 181.1 177.808L180.778 177.915Z" fill="#263238"/>
<g opacity="0.3">
<path d="M87.7789 194.697L177.039 174.293L174.219 156.8L169.156 146.997L83.7686 180.536L87.7789 194.697Z" fill="black"/>
</g>
<g opacity="0.3">
<path d="M125.047 31.8767L128.424 37.4503L129.078 40.4083L126.789 40.9192L125.047 31.8767Z" fill="black"/>
</g>
<path d="M50.8374 54.5697L81.8065 193.527L178.877 171.897L173.34 147.048L147.908 32.9342L50.8374 54.5697Z" fill="white"/>
<path d="M50.8376 54.5697L147.903 32.8525H147.985V32.9394C156.599 71.5563 167.342 119.747 178.97 171.897V172.004H178.867L81.8016 193.629H81.7097V193.532C63.4766 111.476 51.0215 55.4025 50.8325 54.5749C51.0215 55.4229 63.5584 111.481 81.8987 193.532L81.7812 193.461L178.847 171.815L178.765 171.943C167.153 119.803 156.42 71.6125 147.822 32.9854L147.924 33.0518L50.8376 54.5697Z" fill="#263238"/>
<path d="M78.1718 38.0356L120.981 28.4981C121.818 28.3116 122.695 28.4653 123.419 28.9253C124.142 29.3854 124.654 30.1142 124.84 30.9513L127.313 42.0512L78.1816 52.9974L75.7108 41.9075C75.6168 41.4916 75.6059 41.0612 75.6789 40.6411C75.7518 40.221 75.9071 39.8195 76.1358 39.4596C76.3646 39.0998 76.6622 38.7887 77.0116 38.5443C77.361 38.2999 77.7553 38.1271 78.1718 38.0356Z" fill="#263238"/>
<path d="M104.638 26.5228L92.1367 29.3071L95.9836 39.6982L105.399 37.5986L104.638 26.5228Z" fill="#263238"/>
<path d="M120.981 28.4897C120.981 28.5459 111.422 30.7274 99.6059 33.3635C87.7895 35.9996 78.1901 38.0992 78.1748 38.043C78.1595 37.9869 87.7333 35.8054 99.56 33.1693C111.387 30.5332 120.95 28.4489 120.981 28.4897Z" fill="#19395B"/>
<path d="M78.7826 50.4572C78.7264 50.4572 78.2309 48.4648 77.6792 45.982C77.1274 43.4991 76.7187 41.471 76.78 41.4557C76.8413 41.4403 77.3318 43.4481 77.8835 45.936C78.4352 48.424 78.8388 50.4572 78.7826 50.4572Z" fill="#19395B"/>
<path d="M124.971 39.0341C124.561 37.6902 124.22 36.326 123.949 34.9471C123.611 33.5993 123.342 32.2352 123.142 30.8601C123.552 32.1956 123.893 33.5512 124.164 34.9215C124.503 36.2777 124.772 37.6504 124.971 39.0341Z" fill="#19395B"/>
<path d="M123.024 41.4607C123.024 41.5169 113.21 43.7545 101.082 46.457C88.9539 49.1595 79.1145 51.3103 79.0889 51.249C79.0634 51.1877 88.8977 48.9552 101.056 46.2527C113.215 43.5501 122.993 41.4045 123.024 41.4607Z" fill="#19395B"/>
<path d="M97.1685 81.881C97.1685 81.9423 90.5527 83.4647 82.3532 85.2936C74.1537 87.1225 67.5379 88.5479 67.5021 88.4917C67.4663 88.4355 74.1434 86.908 82.3174 85.0842C90.4914 83.2603 97.1532 81.8248 97.1685 81.881Z" fill="#263238"/>
<path d="M146.575 76.3176C146.575 76.3789 129.272 80.2871 107.902 85.0485C86.5321 89.8098 69.188 93.626 69.1777 93.5698C69.1675 93.5136 86.4759 89.6003 107.856 84.839C129.236 80.0777 146.565 76.2614 146.575 76.3176Z" fill="#263238"/>
<path d="M147.644 81.1095C147.644 81.1657 130.335 85.0739 108.965 89.8403C87.5956 94.6068 70.2565 98.4179 70.2412 98.3566C70.2259 98.2953 87.5445 94.3922 108.919 89.6309C130.294 84.8695 147.628 81.038 147.644 81.1095Z" fill="#263238"/>
<path d="M148.706 85.8709C148.706 85.927 131.403 89.8352 110.033 94.5966C88.6632 99.3579 71.319 103.179 71.3037 103.118C71.2884 103.057 88.607 99.1535 109.987 94.3871C131.367 89.6207 148.691 85.8147 148.706 85.8709Z" fill="#263238"/>
<path d="M149.768 90.6476C149.768 90.7038 132.465 94.612 111.095 99.3733C89.7254 104.135 72.3813 107.951 72.3711 107.895C72.3609 107.838 89.6692 103.93 111.049 99.1638C132.429 94.3974 149.758 90.5863 149.768 90.6476Z" fill="#263238"/>
<path d="M150.836 95.4141C150.836 95.4754 133.527 99.3836 112.158 104.145C90.7877 108.906 73.4385 112.728 73.4385 112.671C73.4385 112.615 90.7417 108.707 112.117 103.941C133.492 99.1741 150.82 95.363 150.836 95.4141Z" fill="#263238"/>
<path d="M88.4433 129.035C88.4226 128.984 88.4071 128.93 88.3973 128.876L88.2849 128.422C88.1879 128.008 88.0499 127.43 87.8814 126.71C87.5391 125.234 87.0588 123.16 86.4867 120.677L86.5991 120.748L78.2207 122.628C78.2207 122.628 78.374 122.388 78.3025 122.501V122.536V122.608L78.3331 122.751L78.3996 123.037L78.5222 123.604C78.609 123.982 78.6908 124.355 78.7725 124.728C78.936 125.464 79.0994 126.189 79.2527 126.894C79.5643 128.299 79.8555 129.627 80.1263 130.848L80.0139 130.777L86.0678 129.474L87.7894 129.116L88.2492 129.029L88.4127 128.999C88.4127 128.999 88.3718 128.999 88.2696 129.045L87.8354 129.152L86.1495 129.551L80.0803 130.996H79.9884V130.904L79.0995 126.955C78.9411 126.25 78.7776 125.525 78.5886 124.789C78.5068 124.416 78.42 124.043 78.3382 123.665C78.2923 123.481 78.2514 123.287 78.2105 123.098L78.1441 122.812L78.1135 122.669V122.598V122.562V122.536C78.0419 122.654 78.2105 122.383 78.1952 122.409L86.5786 120.554H86.6706V120.646L87.9886 126.777C88.1368 127.492 88.2543 128.064 88.3411 128.473C88.3769 128.657 88.4024 128.8 88.428 128.917C88.4382 128.955 88.4434 128.995 88.4433 129.035Z" fill="#263238"/>
<path d="M150.719 108.38L92.2681 121.403L93.3546 126.279L151.806 113.257L150.719 108.38Z" fill="#E0E0E0"/>
<path d="M91.6825 143.574C91.6633 143.521 91.6479 143.466 91.6366 143.411C91.6059 143.293 91.5701 143.14 91.5242 142.956C91.4271 142.542 91.2892 141.97 91.1206 141.25C90.7783 139.768 90.2981 137.673 89.7259 135.211L89.8383 135.283L81.46 137.163C81.46 137.193 81.6132 136.922 81.5417 137.04V137.066V137.101V137.173L81.5724 137.316L81.6388 137.602C81.6797 137.796 81.7205 137.985 81.7665 138.174L82.0117 139.293C82.1752 140.034 82.3387 140.754 82.4919 141.459C82.8036 142.864 83.0948 144.192 83.3655 145.413L83.2531 145.342L89.3121 144.044L91.0286 143.686L91.4884 143.594C91.5417 143.58 91.5966 143.571 91.6519 143.569L91.5139 143.61L91.0746 143.717L89.3887 144.121L83.294 145.526H83.2021V145.434L82.3131 141.485C82.1548 140.78 81.9913 140.054 81.8023 139.318C81.7205 138.951 81.6337 138.573 81.5519 138.2C81.5111 138.011 81.4651 137.822 81.4242 137.627L81.3578 137.341L81.3271 137.198V137.127V137.066L81.4089 136.933L89.7872 135.104H89.8792V135.191C90.4207 137.709 90.9009 139.788 91.1972 141.321C91.3454 142.036 91.4629 142.608 91.5497 143.017C91.5855 143.201 91.611 143.344 91.6366 143.462C91.6567 143.497 91.6721 143.535 91.6825 143.574Z" fill="#263238"/>
<path d="M153.956 122.92L95.5044 135.942L96.5909 140.819L155.042 127.796L153.956 122.92Z" fill="#E0E0E0"/>
<path d="M94.9209 158.108C94.9209 158.108 94.9209 158.047 94.875 157.945C94.829 157.843 94.8085 157.674 94.7626 157.49C94.6655 157.076 94.5276 156.504 94.359 155.784C94.0167 154.308 93.5365 152.208 92.9643 149.745L93.0767 149.817L84.6779 151.697C84.6779 151.728 84.8312 151.457 84.7597 151.574V151.61V151.646V151.717L84.7903 151.86L84.8567 152.147C84.8976 152.341 84.9385 152.53 84.9845 152.719L85.2297 153.838C85.3932 154.578 85.5566 155.299 85.7099 156.004L86.5835 159.958L86.4711 159.891L92.5301 158.589L94.2466 158.231L94.7064 158.139C94.7607 158.133 94.8155 158.133 94.8698 158.139L94.7319 158.18L94.2926 158.287L92.6067 158.691L86.512 160.096H86.42V160.004C86.1492 158.788 85.8478 157.449 85.5311 156.055C85.3727 155.35 85.2092 154.629 85.0202 153.889C84.9385 153.521 84.8516 153.148 84.7699 152.77C84.729 152.581 84.683 152.392 84.6422 152.203L84.5809 151.917L84.5451 151.774V151.697V151.61C84.4736 151.723 84.6422 151.452 84.6268 151.482L93.0103 149.628H93.1022V149.72L94.4203 155.85C94.5684 156.566 94.6859 157.138 94.7728 157.552C94.8085 157.73 94.8392 157.873 94.8596 157.991C94.8854 158.027 94.906 158.067 94.9209 158.108Z" fill="#263238"/>
<path d="M157.198 137.459L98.7471 150.482L99.8336 155.359L158.285 142.336L157.198 137.459Z" fill="#E0E0E0"/>
<path d="M80.3916 126.036L81.2703 124.651L83.8809 126.102L87.2424 121.034L88.54 121.933L84.2078 128.319L80.3916 126.036Z" fill="url(#paint3_linear_158_5185)"/>
<path d="M83.5239 140.085L84.4026 138.7L87.0132 140.151L90.3696 135.083L91.6723 135.982L87.335 142.363L83.5239 140.085Z" fill="url(#paint4_linear_158_5185)"/>
<path d="M86.7368 154.486L87.6155 153.107L90.221 154.558L93.5825 149.49L94.8801 150.384L90.5479 156.77L86.7368 154.486Z" fill="url(#paint5_linear_158_5185)"/>
<path d="M113.492 172.556C113.492 172.617 108.567 173.767 102.467 175.11C96.3671 176.454 91.4116 177.522 91.4014 177.465C91.3912 177.409 96.3211 176.26 102.421 174.911C108.521 173.562 113.476 172.505 113.492 172.556Z" fill="#263238"/>
<path d="M124.496 169.93C123.162 170.341 121.808 170.682 120.44 170.952C119.091 171.287 117.727 171.555 116.353 171.754C117.685 171.344 119.037 171.003 120.404 170.732C122.646 170.236 124.486 169.874 124.496 169.93Z" fill="#263238"/>
<path d="M160.942 158.461C160.942 158.517 156.512 159.559 151.026 160.78C145.539 162.001 141.074 162.946 141.063 162.89C141.053 162.834 145.488 161.797 150.98 160.571C156.471 159.345 160.931 158.405 160.942 158.461Z" fill="#263238"/>
<path d="M156.2 171.907C156.2 171.907 156.246 171.769 156.297 171.503C156.365 171.11 156.344 170.707 156.236 170.323C156.054 169.716 155.818 169.126 155.531 168.561C155.124 167.811 154.885 166.981 154.831 166.129C154.843 165.605 154.965 165.089 155.188 164.615C155.412 164.141 155.732 163.718 156.129 163.375C156.593 162.99 157.149 162.729 157.743 162.619C158.337 162.509 158.949 162.553 159.521 162.747C160.149 162.938 160.709 163.305 161.135 163.805C161.362 164.074 161.496 164.409 161.518 164.76C161.524 164.949 161.469 165.135 161.362 165.29C161.254 165.445 161.099 165.562 160.921 165.623C160.587 165.731 160.245 165.815 159.899 165.874L158.877 166.083C158.193 166.221 157.498 166.344 156.783 166.436C155.397 166.635 153.991 166.644 152.604 166.461C151.977 166.326 151.322 166.432 150.77 166.757C150.331 167.2 149.959 167.704 149.666 168.254C149.488 168.525 149.241 168.744 148.951 168.888C148.655 169.018 148.322 169.033 148.016 168.929C147.49 168.695 146.99 168.407 146.524 168.07C146.308 167.926 146.061 167.834 145.804 167.8C145.563 167.773 145.32 167.832 145.119 167.968C144.766 168.291 144.473 168.676 144.256 169.102C144.024 169.468 143.706 169.773 143.331 169.99C142.955 170.207 142.533 170.33 142.1 170.349C141.445 170.375 140.805 170.148 140.312 169.715C140.003 169.448 139.759 169.112 139.602 168.734C139.547 168.605 139.507 168.47 139.484 168.331C139.484 168.331 139.53 168.469 139.643 168.719C139.808 169.08 140.055 169.398 140.363 169.649C140.844 170.056 141.461 170.264 142.09 170.231C142.503 170.21 142.905 170.089 143.261 169.878C143.617 169.667 143.916 169.373 144.133 169.021C144.358 168.574 144.663 168.172 145.032 167.835C145.265 167.674 145.547 167.599 145.829 167.626C146.109 167.667 146.377 167.767 146.616 167.917C147.075 168.242 147.564 168.52 148.077 168.75C148.34 168.838 148.626 168.825 148.879 168.714C149.139 168.585 149.357 168.385 149.508 168.137C149.811 167.572 150.197 167.056 150.652 166.604C150.935 166.402 151.266 166.279 151.612 166.246C151.952 166.21 152.295 166.21 152.634 166.246C154.007 166.424 155.397 166.416 156.767 166.221C157.472 166.129 158.162 166.001 158.846 165.868L159.868 165.664C160.196 165.603 160.52 165.523 160.839 165.424C160.979 165.38 161.1 165.291 161.185 165.171C161.27 165.051 161.314 164.907 161.309 164.76C161.286 164.454 161.168 164.163 160.972 163.927C160.569 163.448 160.037 163.093 159.439 162.905C158.897 162.721 158.318 162.678 157.754 162.78C157.191 162.882 156.664 163.126 156.221 163.488C155.84 163.812 155.531 164.212 155.315 164.662C155.098 165.113 154.979 165.604 154.964 166.103C155.01 166.936 155.233 167.749 155.618 168.489C155.9 169.062 156.128 169.661 156.297 170.277C156.397 170.672 156.406 171.084 156.323 171.483C156.299 171.629 156.258 171.771 156.2 171.907Z" fill="#263238"/>
<path d="M166.76 165.368C166.674 165.403 166.585 165.43 166.494 165.45L165.718 165.634L162.867 166.293C160.466 166.855 157.145 167.641 153.493 168.566C149.84 169.491 146.545 170.385 144.169 171.039L141.349 171.815L140.578 172.019C140.489 172.047 140.399 172.068 140.307 172.081C140.389 172.036 140.477 172.002 140.568 171.979L141.324 171.738C141.983 171.529 142.938 171.228 144.123 170.896C146.499 170.201 149.784 169.286 153.442 168.341C157.1 167.396 160.42 166.65 162.837 166.134C164.042 165.874 165.023 165.669 165.703 165.536L166.484 165.388C166.575 165.373 166.668 165.366 166.76 165.368Z" fill="#263238"/>
<path d="M124.857 53.2707L85.1797 62.1106L86.8406 69.5654L126.518 60.7255L124.857 53.2707Z" fill="#E0E0E0"/>
<path d="M112.619 148.172L125.436 215.894L137.151 194.248L159.353 207.28L135.787 141.337L112.619 148.172Z" fill="url(#paint6_linear_158_5185)"/>
<g opacity="0.3">
<path d="M116.93 170.947C118.151 171.177 119.408 171.107 120.596 170.743C121.783 170.379 122.864 169.732 123.745 168.858C124.915 167.652 125.692 166.007 127.163 165.2C128.486 164.474 130.116 164.577 131.572 164.98C133.028 165.384 134.397 166.053 135.853 166.431C137.29 166.797 138.785 166.874 140.251 166.656C141.718 166.439 143.126 165.931 144.395 165.164L140.696 154.896L123.531 152.75L115.357 162.584L116.93 170.947Z" fill="black"/>
</g>
<path d="M136.318 191.561C136.246 191.561 134.335 184.542 132.052 175.852C129.768 167.162 127.965 160.091 128.047 160.076C128.128 160.061 130.024 167.085 132.307 175.785C134.591 184.485 136.389 191.54 136.318 191.561Z" fill="#263238"/>
<path d="M114.493 151.692L101.675 219.414L89.9608 197.773L67.7583 210.8L91.3249 144.857L114.493 151.692Z" fill="url(#paint7_linear_158_5185)"/>
<g opacity="0.3">
<path d="M84.2749 164.582C84.2749 164.582 87.9225 167.58 92.2701 166.201C96.6176 164.822 99.3201 164.525 101.675 166.201C104.03 167.877 110.401 173.328 110.401 173.328L111.877 165.517L103.32 153.766L94.3902 155.57L88.0349 156.188L85.6696 160.668L84.2749 164.582Z" fill="black"/>
</g>
<path d="M189.648 90.5613C189.648 95.4197 183.441 99.6037 182.532 104.196C181.597 108.927 185.714 115.165 183.911 119.523C182.107 123.88 174.715 125.444 172.094 129.383C169.474 133.321 170.853 140.698 167.497 144.06C164.14 147.421 156.768 146.006 152.819 148.658C148.87 151.309 147.389 158.635 142.959 160.474C138.607 162.278 132.369 158.16 127.633 159.095C123.035 160.004 118.856 166.211 113.998 166.211C109.14 166.211 104.95 160.004 100.358 159.095C95.6269 158.16 89.3892 162.278 85.0314 160.474C80.6737 158.671 79.1155 151.279 75.1767 148.658C71.2379 146.037 63.8609 147.416 60.4942 144.06C57.1276 140.703 58.5478 133.332 55.8964 129.383C53.2449 125.433 45.919 123.952 44.085 119.523C42.2509 115.093 46.3992 108.932 45.4643 104.196C44.555 99.5986 38.3428 95.4197 38.3428 90.5613C38.3428 85.7029 44.555 81.5137 45.4643 76.921C46.3992 72.1903 42.2765 65.9525 44.085 61.5948C45.8935 57.2371 53.2807 55.6738 55.8964 51.7401C58.512 47.8063 57.1378 40.4242 60.4942 37.0576C63.8506 33.6909 71.2225 35.1111 75.1767 32.4597C79.1309 29.8083 80.6022 22.4824 85.0314 20.6483C89.4607 18.8143 95.6218 22.9626 100.358 22.0277C104.955 21.1183 109.14 14.9061 113.998 14.9061C118.856 14.9061 123.04 21.1183 127.633 22.0277C132.364 22.9626 138.602 18.8399 142.959 20.6483C147.389 22.4824 148.88 29.8441 152.819 32.4597C156.758 35.0754 164.135 33.7011 167.497 37.0576C170.858 40.414 169.443 47.7859 172.094 51.7401C174.746 55.6942 182.072 57.1655 183.911 61.5948C185.75 66.0241 181.597 72.1852 182.532 76.921C183.441 81.5137 189.648 85.6876 189.648 90.5613Z" fill="url(#paint8_linear_158_5185)"/>
<path d="M96.2957 48.1538C96.2957 48.1538 96.2395 48.0874 96.1578 47.9444C96.0761 47.8013 95.9483 47.5714 95.8104 47.3211C95.509 46.7796 95.0952 45.9826 94.6047 44.9915C93.6188 43.0093 92.3416 40.22 91.1104 37.073C89.8792 33.926 88.9341 31.0038 88.3159 28.899C88.0094 27.8313 87.7744 26.9679 87.6262 26.3447C87.5598 26.0688 87.5036 25.8338 87.4627 25.6499C87.4363 25.5708 87.4225 25.488 87.4219 25.4047C87.4615 25.4792 87.4924 25.558 87.5138 25.6397L87.7233 26.3191C87.9225 26.9475 88.1831 27.7955 88.4947 28.8224C89.1588 30.9323 90.1346 33.829 91.3556 36.9964C92.5766 40.1638 93.8333 42.9276 94.7733 44.9302L95.9024 47.2956L96.2038 47.9393C96.2409 48.0079 96.2716 48.0797 96.2957 48.1538Z" fill="#263238"/>
<path d="M103.029 45.5944C102.94 45.416 102.873 45.2272 102.83 45.0324C102.723 44.6646 102.58 44.1282 102.411 43.464C102.074 42.1409 101.655 40.2915 101.277 38.2378C100.899 36.1841 100.633 34.3092 100.48 32.9503C100.398 32.2708 100.347 31.7191 100.316 31.3359C100.293 31.1391 100.293 30.9401 100.316 30.7433C100.375 30.9329 100.415 31.1281 100.434 31.3257L100.679 32.9247C100.883 34.2785 101.19 36.1432 101.553 38.1918C101.915 40.2404 102.319 42.0898 102.605 43.4232C102.743 44.0464 102.855 44.5777 102.947 45.0069C102.994 45.1995 103.022 45.3963 103.029 45.5944Z" fill="#263238"/>
<path d="M114.907 44.4142C114.83 44.4142 114.641 38.6822 114.483 31.6168C114.324 24.5514 114.253 18.8143 114.324 18.8092C114.396 18.8041 114.59 24.5361 114.748 31.6117C114.907 38.6873 114.978 44.4142 114.907 44.4142Z" fill="#263238"/>
<path d="M126.862 32.6385C126.933 32.6385 126.105 35.525 125.017 39.0398C123.929 42.5546 122.974 45.3797 122.923 45.3593C122.872 45.3388 123.679 42.4728 124.767 38.958C125.855 35.4432 126.785 32.6181 126.862 32.6385Z" fill="#263238"/>
<path d="M131.735 47.4487C131.745 47.3642 131.767 47.2816 131.801 47.2035L132.031 46.5292C132.236 45.9468 132.542 45.1089 132.951 44.077C133.753 42.0335 134.897 39.1777 136.205 36.0614C137.513 32.9451 138.729 30.1404 139.623 28.1173C140.062 27.1364 140.425 26.3293 140.701 25.7264L141.002 25.0827C141.079 24.9397 141.12 24.8631 141.13 24.8682C141.111 24.9486 141.086 25.0272 141.053 25.1032L140.793 25.7673L139.796 28.1939C138.923 30.2681 137.753 33.0677 136.45 36.1687C135.147 39.2697 133.993 42.0692 133.124 44.1485L132.128 46.57L131.847 47.224C131.819 47.3032 131.781 47.3787 131.735 47.4487Z" fill="#263238"/>
<path d="M138.101 50.7797C138.178 50.599 138.276 50.4276 138.392 50.2688C138.596 49.9418 138.903 49.4769 139.281 48.9099C140.047 47.7808 141.151 46.238 142.433 44.593C143.715 42.948 144.946 41.5278 145.856 40.506C146.31 39.9951 146.688 39.5916 146.954 39.3157C147.082 39.1626 147.228 39.0254 147.388 38.907C147.289 39.0813 147.169 39.2426 147.031 39.3872C146.755 39.7244 146.407 40.1382 146.009 40.6286C145.135 41.681 143.935 43.137 142.652 44.782C141.37 46.427 140.251 47.9443 139.444 49.0478L138.489 50.3505C138.375 50.5067 138.245 50.6505 138.101 50.7797Z" fill="#263238"/>
<path d="M147.408 58.3917C147.357 58.3406 151.403 54.4988 156.435 49.8141C161.467 45.1294 165.595 41.3745 165.631 41.4256C165.667 41.4767 161.641 45.3235 156.604 50.0082C151.567 54.6929 147.459 58.4478 147.408 58.3917Z" fill="#263238"/>
<path d="M163.645 59.9805C163.152 60.292 162.64 60.5718 162.112 60.8183C161.151 61.3292 159.849 62.0393 158.408 62.8618C156.967 63.6843 155.639 64.3689 154.653 64.8287C154.142 65.0585 153.764 65.2374 153.478 65.3395C153.338 65.4123 153.189 65.464 153.034 65.4928C153.526 65.1813 154.038 64.9014 154.566 64.655C155.527 64.1441 156.829 63.434 158.27 62.6115C159.711 61.789 161.039 61.0788 162.025 60.6446C162.536 60.4147 162.914 60.2359 163.2 60.1337C163.339 60.0588 163.489 60.0071 163.645 59.9805Z" fill="#263238"/>
<path d="M178.659 66.208C178.685 66.2795 173.872 68.0369 167.931 70.1366C161.989 72.2363 157.121 73.8762 157.1 73.8098C157.08 73.7434 161.882 71.9809 167.828 69.8812C173.775 67.7815 178.633 66.1416 178.659 66.208Z" fill="#263238"/>
<path d="M183.44 93.5245C183.44 93.596 178.204 93.1617 171.762 92.5487C165.32 91.9357 160.099 91.3788 160.109 91.3022C160.119 91.2255 165.34 91.67 171.787 92.2831C178.235 92.8961 183.446 93.4529 183.44 93.5245Z" fill="#263238"/>
<path d="M179.594 118.026C179.563 118.092 174.674 115.844 168.676 113.014C162.679 110.184 157.841 107.829 157.871 107.762C157.902 107.696 162.791 109.939 168.789 112.774C174.786 115.609 179.624 117.959 179.594 118.026Z" fill="#263238"/>
<path d="M163.511 141.337C163.455 141.383 159.935 137.291 155.639 132.203C151.342 127.114 147.909 122.941 147.976 122.895C148.042 122.849 151.552 126.936 155.848 132.029C160.145 137.122 163.567 141.286 163.511 141.337Z" fill="#263238"/>
<path d="M150.086 144.438C149.927 144.261 149.785 144.069 149.662 143.866C149.401 143.488 149.033 142.931 148.594 142.241C147.705 140.857 146.515 138.921 145.258 136.749C144.001 134.578 142.928 132.576 142.193 131.13C141.82 130.399 141.518 129.807 141.324 129.393C141.209 129.182 141.113 128.962 141.038 128.734C141.182 128.924 141.309 129.128 141.416 129.342C141.661 129.791 141.978 130.363 142.361 131.043C143.153 132.478 144.257 134.461 145.508 136.632C146.76 138.803 147.925 140.749 148.773 142.154C149.171 142.829 149.508 143.386 149.769 143.825C149.897 144.017 150.003 144.223 150.086 144.438Z" fill="#263238"/>
<path d="M141.748 156.137C141.748 156.137 141.697 156.071 141.615 155.928L141.283 155.304C140.992 154.758 140.598 153.961 140.128 152.97C139.188 150.982 137.978 148.193 136.828 145.036C135.679 141.879 134.81 138.967 134.274 136.862C133.993 135.799 133.763 134.931 133.65 134.333C133.594 134.057 133.548 133.822 133.507 133.638C133.487 133.558 133.475 133.476 133.472 133.393C133.513 133.466 133.543 133.545 133.559 133.628L133.753 134.307C133.931 134.941 134.166 135.784 134.453 136.811C135.055 138.921 135.949 141.822 137.099 144.985C138.248 148.147 139.423 150.921 140.322 152.929L141.395 155.294C141.508 155.549 141.605 155.764 141.687 155.938C141.715 156.001 141.736 156.068 141.748 156.137Z" fill="#263238"/>
<path d="M124.859 147.917C124.748 147.33 124.675 146.736 124.639 146.139C124.521 145.041 124.332 143.523 124.056 141.863C123.781 140.203 123.459 138.711 123.214 137.633C123.053 137.056 122.93 136.469 122.846 135.876C122.922 136.018 122.98 136.169 123.019 136.325C123.122 136.622 123.249 137.051 123.397 137.587C123.689 138.655 124.036 140.142 124.317 141.822C124.561 143.246 124.732 144.682 124.828 146.124C124.864 146.676 124.884 147.146 124.884 147.437C124.897 147.597 124.889 147.759 124.859 147.917Z" fill="#263238"/>
<path d="M113.809 162.625C113.797 162.539 113.797 162.451 113.809 162.364C113.809 162.16 113.809 161.91 113.809 161.613C113.809 160.96 113.809 160.014 113.809 158.85C113.85 156.515 113.957 153.296 114.141 149.746C114.325 146.195 114.555 142.977 114.744 140.652C114.836 139.488 114.922 138.548 114.989 137.899C115.025 137.602 115.05 137.352 115.071 137.153C115.076 137.064 115.094 136.977 115.122 136.892C115.134 136.98 115.134 137.07 115.122 137.158C115.122 137.357 115.122 137.608 115.086 137.909C115.045 138.599 114.994 139.528 114.927 140.663C114.79 143.028 114.606 146.226 114.417 149.756C114.228 153.286 114.095 156.525 114.008 158.855C113.967 159.989 113.931 160.898 113.906 161.613C113.906 161.915 113.875 162.16 113.865 162.364C113.859 162.454 113.84 162.541 113.809 162.625Z" fill="#263238"/>
<path d="M104.828 136.892C104.824 137.333 104.773 137.771 104.675 138.2C104.542 138.997 104.327 140.096 104.046 141.296C103.765 142.497 103.469 143.58 103.234 144.361C103.132 144.789 102.983 145.203 102.79 145.598C102.835 145.161 102.922 144.73 103.05 144.31L103.786 141.245C104.051 140.096 104.297 139.053 104.491 138.18C104.562 137.741 104.675 137.31 104.828 136.892Z" fill="#263238"/>
<path d="M88.5873 129.112C87.918 130.218 87.172 131.277 86.3548 132.279C85.6051 133.334 84.7877 134.339 83.9077 135.288C84.5756 134.181 85.3217 133.122 86.1402 132.121C86.8864 131.063 87.704 130.058 88.5873 129.112Z" fill="#263238"/>
<path d="M80.0706 123.37C80.1217 123.416 76.9543 127.14 72.9899 131.681C69.0255 136.223 65.761 139.855 65.7048 139.82C65.6486 139.784 68.8212 136.049 72.7855 131.508C76.7499 126.966 80.0144 123.318 80.0706 123.37Z" fill="#263238"/>
<path d="M75.8046 117.03C74.5518 118.238 73.2371 119.38 71.8658 120.453C69.6435 122.281 67.8044 123.722 67.7788 123.666C69.0325 122.46 70.3472 121.319 71.7176 120.248C73.0251 119.107 74.3892 118.033 75.8046 117.03Z" fill="#263238"/>
<path d="M70.8186 107.471C70.8492 107.538 66.4353 109.734 60.9536 112.371C55.472 115.007 51.0121 117.096 50.9763 117.03C50.9405 116.963 55.3596 114.772 60.8412 112.13C66.3229 109.489 70.7879 107.405 70.8186 107.471Z" fill="#263238"/>
<path d="M68.8157 102.705C68.669 102.769 68.5144 102.814 68.3559 102.838C68.0545 102.909 67.6203 103.001 67.0839 103.098C66.0059 103.303 64.504 103.527 62.8385 103.696C61.1731 103.865 59.6558 103.936 58.5574 103.951C58.0108 103.951 57.5663 103.951 57.2598 103.951C57.1 103.962 56.9395 103.946 56.7847 103.905C57.3707 103.825 57.9609 103.779 58.5523 103.767C59.6456 103.701 61.1526 103.599 62.813 103.43C64.4733 103.262 65.9702 103.068 67.0532 102.919C67.6349 102.806 68.2239 102.735 68.8157 102.705Z" fill="#263238"/>
<path d="M67.1964 91.6954C66.8989 91.7201 66.5999 91.7201 66.3024 91.6954L63.8706 91.5728C61.8272 91.4707 58.9867 91.3787 55.855 91.394C52.7234 91.4094 49.8829 91.5371 47.8343 91.6597L45.4077 91.8078C45.111 91.8418 44.812 91.852 44.5137 91.8385C44.8039 91.7689 45.0996 91.7244 45.3975 91.7057C45.9697 91.6393 46.7973 91.5575 47.819 91.4707C49.8625 91.3021 52.7132 91.1488 55.8499 91.1284C58.9867 91.1079 61.8323 91.2357 63.886 91.3838C64.9077 91.4604 65.7404 91.532 66.3126 91.5933C66.6092 91.6066 66.9046 91.6407 67.1964 91.6954Z" fill="#263238"/>
<path d="M68.1981 82.0298C68.1981 82.1013 64.8724 81.238 60.8109 80.1038C56.7495 78.9697 53.4748 77.999 53.4952 77.9275C53.5156 77.856 56.821 78.7143 60.8824 79.8484C64.9439 80.9825 68.2186 81.9583 68.1981 82.0298Z" fill="#263238"/>
<path d="M70.3386 73.9375C70.2564 73.9327 70.1755 73.9155 70.0985 73.8865L69.419 73.6821C68.8366 73.4982 67.9937 73.2121 66.9668 72.8392C64.2837 71.854 61.6542 70.7285 59.0891 69.4674C56.5251 68.2049 54.0302 66.8065 51.6151 65.2783C50.6904 64.6908 49.9496 64.2003 49.449 63.8478L48.8768 63.434C48.7491 63.3369 48.6827 63.2859 48.6878 63.2756C48.765 63.3068 48.8387 63.3462 48.9075 63.3931L49.5103 63.761C50.0212 64.0879 50.7772 64.5528 51.7121 65.1199C53.587 66.254 56.2129 67.7509 59.2067 69.2069C62.2004 70.6629 64.9897 71.8481 67.0332 72.645C68.055 73.0384 68.8775 73.35 69.4548 73.5646L70.1138 73.8149C70.192 73.8495 70.2672 73.8905 70.3386 73.9375Z" fill="#263238"/>
<path d="M75.146 65.7636C75.1051 65.8198 72.5201 64.0726 69.3731 61.8554C66.2262 59.6382 63.7076 57.7939 63.7535 57.7326C63.7995 57.6713 66.3794 59.4236 69.5315 61.6408C72.6836 63.858 75.1869 65.7176 75.146 65.7636Z" fill="#263238"/>
<path d="M64.9844 40.9453C64.9844 40.9453 65.0559 40.9862 65.1785 41.0833L65.6894 41.5328L67.5745 43.1983L73.7612 48.7208L79.9734 54.2127L81.8534 55.8832L82.3643 56.3481C82.4259 56.3988 82.4809 56.4572 82.5277 56.5218C82.5277 56.5218 82.4562 56.4861 82.3285 56.389L81.8176 55.965C81.3527 55.592 80.6937 55.0403 79.8814 54.3557C78.2568 52.9866 76.0397 51.0708 73.613 48.92C71.1864 46.7693 69.0151 44.7871 67.4825 43.3362C66.706 42.6108 66.0827 42.0233 65.6536 41.6043L65.1683 41.1241C65.0457 41.0117 64.9741 40.9504 64.9844 40.9453Z" fill="#263238"/>
<path d="M80.9189 41.4103C80.9189 41.4103 81.0569 41.5227 81.2663 41.7628C81.4758 42.0029 81.7772 42.3554 82.1297 42.7845C82.8398 43.6734 83.7849 44.9302 84.7658 46.3606C85.7467 47.7911 86.5692 49.1296 87.1363 50.1155C87.4224 50.6264 87.6471 51.0096 87.7902 51.2906C87.8786 51.4303 87.9473 51.5816 87.9945 51.7401C87.6201 51.2527 87.2787 50.7406 86.9728 50.2075C86.3648 49.2471 85.5168 47.9341 84.541 46.5037C83.5653 45.0732 82.6457 43.8114 81.9867 42.8969C81.6015 42.423 81.245 41.9266 80.9189 41.4103Z" fill="#263238"/>
<g opacity="0.2">
<path d="M60.499 37.0627L82.7271 56.5219L88.2496 52.1028L75.3552 32.3423C75.3552 32.3423 74.3641 33.0677 71.7791 33.8034C69.3116 34.5135 61.9806 34.7025 60.499 37.0627Z" fill="black"/>
</g>
<g opacity="0.2">
<path d="M85.2402 20.6024L96.0912 47.7655L103.029 45.5943L100.715 22.0328C100.715 22.0328 99.5242 22.3138 96.8728 21.9766C94.3031 21.6496 88.0756 19.2128 85.2402 20.6024Z" fill="black"/>
</g>
<g opacity="0.3">
<path d="M114.177 14.9163L114.907 44.4141L121.406 44.7258L127.986 22.0839C126.619 21.8124 125.318 21.2743 124.159 20.5002C121.911 19.0595 117.324 14.6762 114.177 14.9163Z" fill="black"/>
</g>
<g opacity="0.2">
<path d="M142.519 20.49L131.735 47.6838L137.589 50.4884L152.43 32.1685C151.315 31.2269 150.364 30.1064 149.615 28.853C148.216 26.5898 145.804 21.3942 142.519 20.49Z" fill="black"/>
</g>
<g opacity="0.2">
<path d="M167.848 37.4561L147.761 58.4018L152.236 64.4352L171.864 51.3365C171.217 50.1461 170.78 48.8535 170.571 47.5151C170.101 44.9608 170.035 40.3221 167.848 37.4561Z" fill="black"/>
</g>
<g opacity="0.2">
<path d="M183.706 61.0891L156.655 72.221L158.898 79.1331L182.434 76.5788C182.434 76.5788 182.286 75.8533 182.597 73.2019C182.894 70.6322 185.612 64.89 183.706 61.0891Z" fill="black"/>
</g>
<g opacity="0.2">
<path d="M189.699 90.5613L160.206 91.583L159.961 98.0864L182.439 104.666C182.588 103.73 182.889 102.824 183.328 101.984C185.004 98.8579 189.699 94.4439 189.699 90.5613Z" fill="black"/>
</g>
<g opacity="0.2">
<path d="M184.258 118.445L157.105 107.865L154.362 113.786L172.84 128.412C173.812 127.482 174.886 126.666 176.043 125.98C178.291 124.545 183.635 122.22 184.258 118.445Z" fill="black"/>
</g>
<g opacity="0.2">
<path d="M144.323 118.026L137.6 123.645C138.11 124.156 147.066 139.401 152.589 148.811C152.66 148.749 152.735 148.691 152.813 148.637C156.446 146.206 162.913 147.181 166.561 144.775L144.323 118.026Z" fill="black"/>
<path d="M131.97 128.693L121.937 132.116L126.688 159.355C126.996 159.247 127.312 159.16 127.633 159.095C132.363 158.16 138.601 162.278 142.959 160.474C143.556 160.218 144.11 159.874 144.604 159.453L131.97 128.693Z" fill="black"/>
<path d="M113.65 166.201L115.249 130.614L106.565 128.412L100.112 159.064L100.347 159.105C104.843 159.979 108.935 165.895 113.65 166.201Z" fill="black"/>
<path d="M91.8357 124.57C91.8357 124.57 80.3717 139.927 74.374 148.193C74.6516 148.333 74.9211 148.488 75.1812 148.658C79.12 151.294 80.6067 158.635 85.0359 160.474C85.2403 160.556 85.4498 160.622 85.6592 160.684L101.675 130.369L91.8357 124.57Z" fill="black"/>
<path d="M80.071 112.207L55.6206 129.01C55.7126 129.132 55.8147 129.25 55.8965 129.377C58.553 133.342 57.1379 140.693 60.4943 144.055C60.8041 144.359 61.1468 144.628 61.5161 144.857C70.1549 135.12 85.665 117.638 86.227 117.03L80.071 112.207Z" fill="black"/>
<path d="M74.4662 100.207L45.5559 104.876C46.0208 109.515 42.363 115.369 44.0846 119.518C44.1883 119.771 44.3131 120.016 44.4575 120.248C54.5728 115.211 75.7076 104.733 76.5863 104.677L74.4662 100.207Z" fill="black"/>
<path d="M72.888 84.104L45.5614 76.2212C45.5359 76.4562 45.5052 76.6912 45.4643 76.9211C44.555 81.5189 38.3428 85.703 38.3428 90.5614C38.3442 90.8849 38.3715 91.2078 38.4245 91.5269H71.7794L72.888 84.104Z" fill="black"/>
<path d="M44.1968 61.3854C54.4142 66.8568 74.374 77.9274 74.374 77.9274L79.2886 68.5938L56.2074 51.2241C56.1052 51.4029 56.0082 51.5868 55.8958 51.735C53.2954 55.6125 46.179 57.1247 44.1968 61.3854Z" fill="black"/>
</g>
<path d="M189.648 90.5613L189.617 90.2344C189.605 89.914 189.561 89.5956 189.485 89.2841C189.187 88.0591 188.668 86.8989 187.952 85.8613C187.073 84.4513 185.745 82.8727 184.376 80.8752C183.603 79.8126 183.009 78.6304 182.619 77.3757C182.286 75.9111 182.286 74.3906 182.619 72.926C182.905 71.3678 183.369 69.7637 183.773 68.0625C184.177 66.3613 184.555 64.5221 184.177 62.6421C183.963 61.6906 183.527 60.803 182.905 60.052C182.237 59.2873 181.475 58.6109 180.636 58.0392C178.94 56.8335 176.989 55.8731 175.124 54.6163C174.159 53.9943 173.283 53.2451 172.519 52.3889C171.768 51.4596 171.223 50.3818 170.92 49.2266C170.266 46.9021 170.117 44.4193 169.622 41.9365C169.405 40.6722 168.979 39.4532 168.36 38.3297C167.688 37.1987 166.668 36.3152 165.453 35.8111C164.199 35.307 162.886 34.9637 161.545 34.7893C160.191 34.5646 158.802 34.4062 157.412 34.161C155.988 33.9557 154.608 33.5191 153.325 32.8685C152.053 32.1039 150.976 31.0546 150.178 29.8032C149.33 28.5873 148.599 27.2795 147.823 25.987C147.079 24.6645 146.188 23.4306 145.166 22.3087C144.114 21.1739 142.678 20.4695 141.136 20.3316C139.56 20.2734 137.985 20.4577 136.466 20.8783C134.934 21.2512 133.36 21.7059 131.751 22.0073C130.124 22.3907 128.427 22.3591 126.816 21.9153C125.245 21.2992 123.776 20.4501 122.458 19.3967C121.094 18.375 119.766 17.3533 118.31 16.4439C116.854 15.5345 115.204 14.8755 113.487 15.0697H113.165C113.058 15.0697 112.956 15.1156 112.854 15.1361C112.644 15.1872 112.43 15.2229 112.225 15.2842C111.814 15.4151 111.411 15.5721 111.02 15.7542C110.229 16.13 109.471 16.5691 108.751 17.0672C107.301 18.0889 105.926 19.2026 104.435 20.2141C103.692 20.7341 102.906 21.1887 102.085 21.5731C101.243 21.9495 100.342 22.176 99.4229 22.2423C97.5795 22.2541 95.7445 21.9942 93.977 21.4709C92.1973 20.9628 90.382 20.5888 88.5464 20.3521C87.6297 20.2619 86.7045 20.324 85.8081 20.536C84.9152 20.7842 84.0918 21.2353 83.4019 21.854C81.9919 23.0852 81.011 24.7405 80.0301 26.3651C79.1041 28.0662 78.0215 29.6773 76.7963 31.1775C76.1477 31.9206 75.3686 32.5387 74.4974 33.0013C73.608 33.4217 72.674 33.7405 71.7131 33.9515C69.7922 34.3755 67.8305 34.5543 65.8943 34.9017C63.9581 35.2491 61.981 35.7958 60.5812 37.1547C59.9056 37.8744 59.384 38.7245 59.0486 39.6529C58.7103 40.5892 58.4623 41.5558 58.3078 42.5393C57.9502 44.5113 57.7969 46.5343 57.2861 48.5216C57.0665 49.5302 56.6999 50.501 56.1979 51.4029C55.669 52.2965 54.9756 53.0818 54.1544 53.7172C52.5401 55.0148 50.706 55.9752 48.9486 57.0481C48.0682 57.578 47.2234 58.165 46.4198 58.8055C45.6204 59.4443 44.948 60.2276 44.4376 61.1146C43.951 62.018 43.7047 63.0313 43.7224 64.0573C43.7405 65.0886 43.862 66.1154 44.0851 67.1225C44.5143 69.166 45.1631 71.1737 45.5104 73.253C45.7164 74.32 45.7577 75.4123 45.6331 76.4919C45.488 77.5687 45.1414 78.6086 44.6113 79.5571C43.5436 81.4218 42.154 83.0617 40.9228 84.7987C40.2905 85.6547 39.7398 86.568 39.2778 87.5267C38.7716 88.4618 38.5066 89.5083 38.5066 90.5715C38.5066 91.6348 38.7716 92.6813 39.2778 93.6164C39.739 94.5755 40.2898 95.4889 40.9228 96.3444C42.154 98.0814 43.5436 99.7213 44.6113 101.586C45.1317 102.517 45.4779 103.535 45.6331 104.59C45.7628 105.655 45.7284 106.733 45.5309 107.788C45.1886 109.888 44.5398 111.9 44.1055 113.944C43.8843 114.951 43.7628 115.978 43.7428 117.009C43.7227 118.036 43.9673 119.052 44.4529 119.957C44.9593 120.847 45.6303 121.632 46.43 122.271C47.2336 122.912 48.0784 123.499 48.9588 124.029C50.7162 125.101 52.535 126.072 54.1698 127.36C54.9896 127.996 55.6828 128.781 56.2132 129.674C56.719 130.572 57.0859 131.542 57.3014 132.55C57.7816 134.542 57.9451 136.565 58.3231 138.537C58.4818 139.521 58.7315 140.487 59.069 141.424C59.3965 142.352 59.9093 143.203 60.5761 143.927C61.9912 145.301 63.9836 145.848 65.8943 146.195C67.8049 146.543 69.7922 146.706 71.7131 147.146C72.6754 147.357 73.611 147.676 74.5025 148.096C75.3725 148.56 76.1514 149.178 76.8014 149.92C78.0143 151.422 79.0866 153.033 80.0046 154.732C80.9855 156.357 81.9663 158.012 83.3764 159.243C84.0651 159.861 84.8866 160.312 85.7775 160.561C86.6815 160.789 87.6173 160.865 88.5464 160.786C90.3787 160.54 92.1903 160.159 93.9667 159.647C95.7352 159.119 97.5723 158.858 99.4178 158.87C100.337 158.939 101.238 159.168 102.079 159.545C102.9 159.93 103.686 160.385 104.429 160.903C105.921 161.925 107.29 163.054 108.746 164.045C109.463 164.547 110.22 164.988 111.009 165.363C111.401 165.545 111.804 165.702 112.215 165.833C112.425 165.89 112.634 165.93 112.843 165.982L113.16 166.048H113.477C115.199 166.242 116.854 165.537 118.305 164.674C119.756 163.81 121.089 162.722 122.448 161.721C123.768 160.668 125.239 159.818 126.811 159.202C128.422 158.761 130.119 158.729 131.746 159.11C133.355 159.417 134.908 159.871 136.461 160.244C137.983 160.66 139.559 160.845 141.136 160.791C142.676 160.648 144.109 159.942 145.161 158.809C146.18 157.683 147.071 156.447 147.818 155.125C148.589 153.838 149.32 152.53 150.168 151.309C150.97 150.06 152.049 149.011 153.32 148.244C154.602 147.593 155.983 147.158 157.407 146.957C158.802 146.706 160.186 146.548 161.54 146.328C162.882 146.146 164.195 145.794 165.448 145.281C166.662 144.775 167.681 143.892 168.355 142.762C168.97 141.638 169.395 140.419 169.612 139.156C170.123 136.673 170.255 134.185 170.914 131.86C171.215 130.705 171.76 129.629 172.513 128.703C173.276 127.845 174.152 127.095 175.119 126.476C176.984 125.219 178.935 124.259 180.626 123.053C181.469 122.482 182.233 121.804 182.899 121.035C183.521 120.286 183.955 119.4 184.166 118.45C184.345 117.532 184.371 116.592 184.243 115.666C184.138 114.778 183.977 113.897 183.763 113.03C183.354 111.328 182.894 109.724 182.608 108.166C182.276 106.701 182.276 105.181 182.608 103.716C183.001 102.462 183.594 101.281 184.366 100.217C185.75 98.2193 187.084 96.6407 187.942 95.2307C188.658 94.1935 189.178 93.0332 189.474 91.8079C189.551 91.4965 189.595 91.1781 189.607 90.8576L189.638 90.5358C189.638 90.5358 189.638 90.6431 189.638 90.8576C189.628 91.1793 189.587 91.4993 189.515 91.813C189.224 93.0481 188.705 94.2178 187.983 95.2614C187.109 96.6816 185.786 98.2653 184.407 100.263C183.64 101.318 183.055 102.494 182.675 103.742C182.342 105.191 182.342 106.696 182.675 108.146C182.961 109.678 183.426 111.298 183.839 112.999C184.062 113.874 184.233 114.761 184.35 115.655C184.478 116.593 184.452 117.546 184.274 118.475C184.061 119.447 183.619 120.354 182.986 121.122C182.313 121.899 181.542 122.586 180.693 123.165C178.986 124.381 177.04 125.347 175.185 126.598C174.238 127.214 173.379 127.954 172.631 128.8C171.893 129.711 171.36 130.771 171.068 131.906C170.419 134.205 170.276 136.688 169.775 139.186C169.559 140.47 169.129 141.708 168.503 142.849C167.813 144.012 166.767 144.922 165.52 145.444C164.254 145.964 162.927 146.321 161.571 146.507C160.212 146.732 158.822 146.89 157.438 147.141C156.032 147.341 154.668 147.771 153.402 148.413C152.166 149.163 151.117 150.185 150.336 151.401C149.499 152.612 148.768 153.915 147.992 155.212C147.24 156.548 146.342 157.795 145.315 158.931C144.228 160.103 142.747 160.831 141.156 160.975C139.557 161.038 137.958 160.853 136.415 160.428C134.857 160.055 133.304 159.606 131.71 159.304C130.119 158.932 128.459 158.962 126.882 159.391C125.334 160.002 123.886 160.84 122.586 161.879C121.232 162.875 119.899 163.948 118.427 164.847C118.044 165.052 117.681 165.292 117.283 165.46C117.084 165.552 116.89 165.649 116.69 165.731L116.072 165.951C115.234 166.239 114.344 166.343 113.462 166.257L113.13 166.232C113.022 166.232 112.915 166.186 112.803 166.165C112.588 166.114 112.368 166.073 112.159 166.012C111.734 165.881 111.32 165.721 110.918 165.532C110.116 165.152 109.347 164.706 108.619 164.199C107.152 163.177 105.778 162.063 104.302 161.057C103.568 160.548 102.794 160.1 101.987 159.718C101.171 159.355 100.298 159.136 99.4075 159.069C97.5862 159.061 95.7737 159.321 94.028 159.841C92.233 160.369 90.4006 160.76 88.5464 161.011C87.599 161.103 86.6428 161.039 85.7161 160.822C84.7879 160.563 83.9315 160.095 83.2129 159.453C81.762 158.18 80.7709 156.51 79.79 154.88C78.8811 153.195 77.8173 151.597 76.6124 150.109C75.9847 149.389 75.2296 148.792 74.385 148.346C73.5144 147.932 72.599 147.62 71.6569 147.416C69.7565 146.997 67.7998 146.819 65.8483 146.466C64.8651 146.303 63.899 146.05 62.9619 145.71C62.0115 145.362 61.1422 144.823 60.4075 144.126C59.7102 143.382 59.176 142.499 58.8391 141.536C58.4942 140.585 58.2394 139.603 58.0779 138.604C57.7203 136.617 57.5671 134.593 57.0562 132.632C56.844 131.649 56.4859 130.704 55.9936 129.827C55.4765 128.961 54.8005 128.2 54.0012 127.584C52.4175 126.312 50.5885 125.352 48.826 124.274C47.9368 123.737 47.0836 123.143 46.2717 122.496C45.4453 121.834 44.7519 121.021 44.2282 120.1C43.7237 119.158 43.4703 118.103 43.4925 117.035C43.5046 115.977 43.6279 114.924 43.8603 113.893C44.2946 111.849 44.9434 109.806 45.2806 107.762C45.4734 106.733 45.5061 105.68 45.3776 104.641C45.2229 103.608 44.8763 102.614 44.3559 101.709C43.3341 99.8694 41.9241 98.2398 40.6827 96.4875C40.0358 95.6144 39.4698 94.6842 38.9917 93.7083C38.4721 92.7371 38.2002 91.6526 38.2002 90.5511C38.2002 89.4496 38.4721 88.3651 38.9917 87.3939C39.4632 86.421 40.0242 85.494 40.6674 84.625C41.9088 82.8727 43.2933 81.243 44.3354 79.409C44.8554 78.5017 45.2019 77.5056 45.3572 76.4715C45.4764 75.4316 45.442 74.3799 45.255 73.35C44.9127 71.3065 44.2639 69.263 43.8297 67.2196C43.6015 66.1892 43.4799 65.1381 43.467 64.0828C43.4466 63.0144 43.7017 61.9587 44.2077 61.0176C44.7348 60.1008 45.4278 59.2901 46.2512 58.6267C47.0619 57.9775 47.9153 57.3835 48.8056 56.8488C50.5681 55.7709 52.3817 54.8053 53.9807 53.5384C54.7786 52.9227 55.4529 52.1618 55.968 51.2956C56.4579 50.4167 56.8143 49.4697 57.0255 48.4858C57.5006 46.5241 57.6641 44.5061 58.0473 42.5189C58.207 41.5199 58.4601 40.5381 58.8034 39.5864C59.1114 38.6123 59.6476 37.7259 60.3674 37.0008C61.0871 36.2757 61.9696 35.733 62.9414 35.4177C63.8785 35.0782 64.8447 34.8251 65.8279 34.6616C67.7794 34.3091 69.736 34.1508 71.6365 33.7165C72.5768 33.5062 73.4915 33.1944 74.3646 32.7867C75.2066 32.3376 75.9597 31.7386 76.5868 31.0191C77.7918 29.5306 78.8556 27.9332 79.7645 26.2476C80.7453 24.6179 81.7364 22.9473 83.1924 21.6803C83.9146 21.0289 84.7787 20.5548 85.7161 20.2959C86.6432 20.0804 87.599 20.0165 88.5464 20.1069C90.3891 20.3532 92.2111 20.7357 93.9974 21.2512C95.7422 21.7751 97.5552 22.0368 99.3769 22.0277C100.259 21.9574 101.123 21.7362 101.931 21.3738C102.741 20.9968 103.515 20.5489 104.245 20.0353C105.727 19.0136 107.101 17.8948 108.567 16.8986C109.295 16.3897 110.064 15.9436 110.866 15.5652C111.268 15.378 111.681 15.2159 112.103 15.0799C112.317 15.0186 112.537 14.9828 112.752 14.9317L113.073 14.8602H113.405C114.288 14.7769 115.177 14.8813 116.016 15.1667L116.634 15.3864C116.833 15.4681 117.028 15.5652 117.227 15.6572C117.63 15.8309 117.993 16.0659 118.371 16.2702C119.848 17.1693 121.176 18.2422 122.535 19.2384C123.834 20.2764 125.28 21.115 126.826 21.7263C128.403 22.1584 130.063 22.1883 131.654 21.8132C133.248 21.5169 134.801 21.0673 136.359 20.6944C137.902 20.2701 139.501 20.084 141.1 20.1426C142.69 20.2887 144.171 21.0163 145.258 22.1861C146.287 23.3247 147.187 24.5737 147.94 25.9104C148.717 27.2029 149.442 28.5107 150.28 29.7164C151.06 30.9354 152.108 31.9596 153.345 32.7101C154.611 33.354 155.975 33.7838 157.381 33.9822C158.766 34.2325 160.155 34.3909 161.514 34.6156C162.87 34.8036 164.197 35.1606 165.463 35.6783C166.711 36.2003 167.758 37.108 168.452 38.2684C169.076 39.4105 169.506 40.6483 169.724 41.9314C170.235 44.4295 170.368 46.9124 171.011 49.2113C171.307 50.3455 171.84 51.4042 172.575 52.3174C173.321 53.1662 174.181 53.9087 175.129 54.5244C176.984 55.776 178.935 56.7416 180.636 57.9574C181.486 58.5366 182.257 59.2235 182.93 60.0009C183.563 60.7669 184.006 61.672 184.223 62.6421C184.401 63.5735 184.427 64.5276 184.299 65.4673C184.182 66.3605 184.011 67.2459 183.788 68.1187C183.38 69.825 182.91 71.424 182.624 72.9771C182.291 74.4262 182.291 75.9317 182.624 77.3808C183.004 78.6286 183.589 79.8043 184.355 80.8599C185.73 82.8625 187.053 84.436 187.932 85.8613C188.652 86.9056 189.172 88.075 189.464 89.3097C189.536 89.6234 189.577 89.9434 189.587 90.265C189.648 90.4489 189.648 90.5613 189.648 90.5613Z" fill="#263238"/>
<path d="M99.7852 160.786C99.8567 160.786 97.9716 168.449 95.5756 177.859C93.1796 187.27 91.177 194.887 91.1055 194.871C91.034 194.856 92.9191 187.208 95.3151 177.793C97.7111 168.378 99.7341 160.745 99.7852 160.786Z" fill="#263238"/>
<path d="M113.998 136.938C139.611 136.938 160.375 116.175 160.375 90.5614C160.375 64.948 139.611 44.1843 113.998 44.1843C88.3843 44.1843 67.6206 64.948 67.6206 90.5614C67.6206 116.175 88.3843 136.938 113.998 136.938Z" fill="white"/>
<path d="M85.4398 74.4893C84.8013 75.1279 81.2865 81.5241 80.9646 86.8014C80.6428 92.0787 81.404 121.699 81.404 121.699L81.5419 123.666C89.8895 133.429 120.235 147.958 147.567 123.615L149.1 105.392L144.589 66.816L128.905 62.9794L125.232 57.0277L100.751 62.7597L98.5642 67.9195L85.4398 74.4893Z" fill="#19395B"/>
<path d="M123.551 41.5176C124.629 37.5072 125.686 33.4713 126.059 29.3384C126.432 25.2054 126.09 20.9345 124.445 17.1234C124.194 16.5461 122.125 12.689 121.502 12.7861C121.058 12.8525 122.396 16.4797 122.192 16.8731C120.225 20.6893 119.867 25.1697 120.434 29.4252C121.019 33.5579 122.065 37.6121 123.551 41.5125" fill="#263238"/>
<path d="M123.142 25.6804C122.948 15.274 116.726 6.71684 106.329 7.20217L105.369 7.30435C100.719 7.79456 96.4238 10.0171 93.3379 13.5299C90.252 17.0428 88.6014 21.5884 88.7144 26.2628C88.9392 35.2797 89.2968 45.2418 89.8639 50.0338C91.0338 59.9498 101.103 60.4505 101.103 60.4505L101.568 66.9743L105.834 71.6079L125.61 59.347L123.142 25.6804Z" fill="#FFBF9D"/>
<path d="M101.128 60.5272C101.128 60.5272 107.427 60.236 113.655 55.3418C113.655 55.3418 111.571 64.3383 101.568 64.4864L101.128 60.5272Z" fill="#FF9A6C"/>
<path d="M94.4316 34.35C94.4666 34.7229 94.6471 35.0671 94.9339 35.308C95.2207 35.5489 95.5908 35.6672 95.9642 35.6374C96.146 35.6329 96.3251 35.592 96.4909 35.5172C96.6567 35.4424 96.8059 35.3352 96.9296 35.202C97.0534 35.0687 97.1493 34.912 97.2116 34.7411C97.2739 34.5702 97.3014 34.3886 97.2925 34.207C97.2561 33.8346 97.0753 33.4912 96.7888 33.2506C96.5023 33.0099 96.1329 32.8911 95.7599 32.9196C95.5778 32.9234 95.3984 32.9638 95.2323 33.0384C95.0661 33.1129 94.9167 33.2201 94.7928 33.3535C94.6689 33.4869 94.5731 33.6439 94.511 33.8151C94.449 33.9863 94.422 34.1682 94.4316 34.35Z" fill="#263238"/>
<path d="M91.2739 30.1608C91.468 30.3243 92.4591 29.4201 93.9866 29.2617C95.5142 29.1033 96.7096 29.7726 96.8578 29.5427C96.9293 29.4558 96.7147 29.1391 96.1885 28.8325C95.4804 28.4465 94.6706 28.2878 93.8691 28.3779C93.0754 28.4597 92.3279 28.7905 91.7337 29.323C91.2995 29.7368 91.1768 30.0842 91.2739 30.1608Z" fill="#263238"/>
<path d="M107.913 33.2057C107.948 33.5786 108.129 33.9227 108.416 34.1636C108.702 34.4046 109.073 34.5229 109.446 34.4931C109.628 34.4885 109.807 34.4476 109.973 34.3729C110.138 34.2981 110.288 34.1909 110.411 34.0576C110.535 33.9243 110.631 33.7676 110.693 33.5968C110.756 33.4259 110.783 33.2443 110.774 33.0626C110.739 32.6893 110.559 32.3447 110.272 32.1029C109.986 31.8612 109.615 31.7417 109.242 31.7701C109.059 31.7753 108.88 31.8168 108.714 31.8922C108.549 31.9675 108.4 32.0752 108.276 32.2088C108.152 32.3425 108.056 32.4996 107.994 32.6707C107.932 32.8419 107.904 33.0237 107.913 33.2057Z" fill="#263238"/>
<path d="M106.288 29.2005C106.482 29.3691 107.478 28.4597 109.001 28.3013C110.523 28.143 111.729 28.8122 111.872 28.5874C111.943 28.4955 111.734 28.1787 111.208 27.8773C110.498 27.4893 109.686 27.3304 108.883 27.4226C108.089 27.5009 107.34 27.8322 106.748 28.3677C106.319 28.7764 106.196 29.1289 106.288 29.2005Z" fill="#263238"/>
<path d="M102.048 41.5074C102.048 41.4205 101.083 41.3541 99.5245 41.3184C99.1311 41.3184 98.753 41.2826 98.6611 41.0221C98.584 40.6239 98.6322 40.2116 98.799 39.8419L99.6368 36.7767C100.791 32.3832 101.583 28.7867 101.41 28.7407C101.236 28.6947 100.148 32.2197 98.9931 36.6183L98.2064 39.7091C98.014 40.1995 97.9996 40.7418 98.1655 41.2417C98.2353 41.3748 98.3347 41.4901 98.456 41.5787C98.5774 41.6672 98.7174 41.7267 98.8654 41.7526C99.0877 41.7799 99.3124 41.7799 99.5347 41.7526C101.093 41.6862 102.053 41.5942 102.048 41.5074Z" fill="#263238"/>
<path d="M106.651 42.0898C106.401 42.0898 106.575 43.7552 105.282 45.0835C103.99 46.4117 102.217 46.4117 102.217 46.6467C102.217 46.7489 102.641 46.9277 103.392 46.8664C104.359 46.7756 105.263 46.3469 105.946 45.6556C106.598 44.9868 106.964 44.0912 106.968 43.1575C106.993 42.4576 106.764 42.0693 106.651 42.0898Z" fill="#263238"/>
<path d="M105.722 22.9984C105.916 23.3969 107.418 23.0393 109.232 23.0699C111.045 23.1006 112.547 23.4326 112.741 23.0341C112.828 22.8451 112.537 22.4824 111.909 22.1401C111.075 21.736 110.161 21.526 109.234 21.526C108.308 21.526 107.393 21.736 106.56 22.1401C105.916 22.4466 105.635 22.8094 105.722 22.9984Z" fill="#263238"/>
<path d="M91.3712 25.0215C91.6726 25.3382 92.6892 24.8682 93.9511 24.7149C95.2129 24.5617 96.3113 24.715 96.5054 24.3165C96.5974 24.1274 96.3931 23.8056 95.8924 23.5195C95.2217 23.1924 94.469 23.0717 93.7296 23.1726C92.9903 23.2735 92.2975 23.5916 91.739 24.0866C91.3405 24.4902 91.2332 24.8631 91.3712 25.0215Z" fill="#263238"/>
<path d="M123.107 33.1239C123.27 33.032 129.718 30.3856 130.218 37.2109C130.719 44.0362 123.797 43.1064 123.751 42.9122C123.705 42.7181 123.107 33.1239 123.107 33.1239Z" fill="#FFBF9D"/>
<path d="M125.64 40.179C125.671 40.179 125.763 40.2505 125.972 40.3272C126.263 40.4279 126.582 40.4114 126.861 40.2812C127.561 39.9644 128.082 38.7792 128.026 37.548C128.002 36.9624 127.847 36.3896 127.571 35.8724C127.491 35.6646 127.362 35.4793 127.195 35.3325C127.028 35.1856 126.827 35.0816 126.611 35.0294C126.473 35.002 126.329 35.0245 126.206 35.0927C126.082 35.1609 125.987 35.2706 125.936 35.4024C125.855 35.6016 125.911 35.7344 125.875 35.7497C125.839 35.7651 125.722 35.6425 125.753 35.3615C125.779 35.1888 125.864 35.0302 125.993 34.9119C126.17 34.7572 126.401 34.6784 126.636 34.6922C126.92 34.7258 127.19 34.8324 127.42 35.0016C127.651 35.1709 127.833 35.397 127.949 35.6578C128.285 36.2259 128.474 36.8683 128.501 37.5276C128.557 38.9018 127.949 40.2403 126.968 40.5928C126.79 40.6601 126.598 40.6863 126.408 40.6695C126.218 40.6527 126.034 40.5933 125.87 40.4958C125.666 40.3425 125.62 40.1892 125.64 40.179Z" fill="#FF9A6C"/>
<path d="M92.3974 14.6763C91.2582 14.1347 94.3387 10.3492 96.9953 8.94428C100.975 6.82416 107.157 5.27621 111.003 6.10383C115.637 7.12557 119.561 9.11798 122.11 13.113C124.659 17.108 125.829 21.8745 126.003 26.6103C126.054 28.056 126.003 29.5682 125.308 30.8352C124.455 32.4036 122.687 33.4713 122.902 35.5454C122.953 35.9199 122.928 36.3009 122.83 36.6658C122.732 37.0308 122.562 37.3724 122.329 37.6707C121.165 39.0807 119.561 37.9312 118.779 36.7255C117.108 34.1712 116.735 30.9782 116.408 27.9232C116.173 25.7571 115.944 23.5399 116.408 21.4147C116.664 20.255 117.134 19.1464 117.328 17.9765C117.522 16.8066 117.405 15.5039 116.628 14.6047C116.447 14.4162 116.249 14.2451 116.035 14.0939C115.03 13.3224 113.838 12.8333 112.58 12.677C111.323 12.5208 110.047 12.703 108.883 13.205C105.128 14.8091 98.7067 17.2613 96.9084 16.0658C94.3285 14.3493 93.6542 13.1437 93.6542 13.1437L92.3974 14.6763Z" fill="#263238"/>
<path d="M85.44 74.4893C85.0467 75.0359 79.4628 76.8904 77.3427 80.4205C75.2226 83.9506 73.128 99.7979 73.128 99.7979L71.7793 110.209C74.4358 114.409 78.0017 119.972 81.7822 123.896L85.44 74.4893Z" fill="#19395B"/>
<g opacity="0.3">
<path d="M127.397 89.7745C127.548 91.9113 127.953 94.0224 128.603 96.0634C129.334 98.0711 130.616 99.9613 132.491 100.998C133.272 101.428 134.156 101.714 134.815 102.327C135.474 102.94 135.873 103.931 136.511 104.651C137.31 105.443 138.296 106.021 139.377 106.332C142.421 107.448 145.65 107.968 148.89 107.865C148.992 106.771 148.997 102.756 149.099 101.657L127.397 89.7745Z" fill="black"/>
</g>
<path d="M144.588 66.816C144.588 66.816 151.628 68.9004 153.692 71.8992C155.756 74.898 159.409 86.5255 160.16 88.6814C160.911 90.8373 160.252 95.8336 158.847 99.4097C157.442 102.986 155 106.097 150.785 106.562C146.57 107.027 139.909 104.595 138.407 102.986C136.905 101.377 136.287 97.8158 136.287 97.8158C138.158 97.4877 140.004 97.025 141.809 96.4313" fill="#19395B"/>
<path d="M141.81 96.467L141.723 96.5028L141.457 96.5999C141.222 96.6816 140.87 96.7991 140.405 96.937C139.062 97.3387 137.697 97.6662 136.318 97.9179L136.374 97.8413C136.546 98.719 136.786 99.5817 137.095 100.421C137.263 100.897 137.466 101.36 137.703 101.806C137.945 102.282 138.264 102.715 138.648 103.088C139.08 103.459 139.557 103.775 140.068 104.028C140.607 104.311 141.162 104.565 141.728 104.789C142.944 105.275 144.194 105.671 145.468 105.974C146.843 106.312 148.252 106.492 149.667 106.511C150.036 106.514 150.404 106.497 150.771 106.46C151.14 106.417 151.507 106.353 151.869 106.266C152.611 106.099 153.324 105.821 153.984 105.443C155.358 104.648 156.512 103.523 157.34 102.168C158.216 100.762 158.887 99.2379 159.333 97.642C159.696 96.4158 159.968 95.1641 160.145 93.8973C160.335 92.6708 160.397 91.4277 160.329 90.1884C160.289 89.5921 160.167 89.0043 159.966 88.4412C159.772 87.869 159.583 87.302 159.399 86.74L158.301 83.4551C157.575 81.3196 156.86 79.3017 156.145 77.4268C155.517 75.6821 154.761 73.9865 153.882 72.3538C153.476 71.6599 152.934 71.0552 152.288 70.576C151.725 70.1283 151.127 69.7268 150.5 69.3754C149.492 68.8005 148.45 68.2886 147.378 67.8428C146.5 67.4801 145.805 67.2247 145.335 67.0561L144.799 66.8671C144.735 66.85 144.673 66.826 144.615 66.7955C144.679 66.8039 144.742 66.8193 144.804 66.8415L145.35 67.005C145.83 67.1582 146.535 67.3984 147.424 67.7458C148.505 68.1722 149.557 68.6653 150.577 69.2222C151.215 69.5735 151.825 69.975 152.4 70.4227C153.065 70.9105 153.625 71.5273 154.045 72.2363C154.944 73.8779 155.716 75.5858 156.354 77.3451C157.085 79.2148 157.805 81.2379 158.536 83.3734C158.899 84.4411 159.266 85.5395 159.644 86.6583C159.834 87.2151 160.023 87.7822 160.212 88.3544C160.422 88.9368 160.55 89.5453 160.595 90.1629C160.667 91.4207 160.607 92.6827 160.416 93.928C160.235 95.2084 159.96 96.4737 159.593 97.7136C159.137 99.3365 158.449 100.885 157.55 102.311C156.698 103.702 155.511 104.856 154.096 105.668C153.415 106.055 152.68 106.339 151.915 106.511C151.543 106.599 151.166 106.666 150.786 106.71C150.408 106.71 150.03 106.776 149.662 106.761C148.227 106.735 146.799 106.546 145.406 106.199C144.121 105.891 142.861 105.486 141.636 104.988C141.066 104.758 140.508 104.497 139.966 104.207C139.44 103.943 138.949 103.616 138.505 103.231C138.109 102.84 137.781 102.386 137.534 101.887C137.297 101.435 137.094 100.965 136.926 100.482C136.626 99.6279 136.392 98.7518 136.226 97.8617V97.7953H136.292C138.091 97.4837 139.47 97.1312 140.405 96.8757L141.468 96.5743L141.738 96.4977C141.779 96.467 141.81 96.4619 141.81 96.467Z" fill="#263238"/>
<path d="M154.729 92.7019C154.678 92.7019 154.515 91.8335 153.927 90.5359C153.155 88.849 152.078 87.3195 150.749 86.0248C150.013 85.3241 149.181 84.7323 148.277 84.2674L147.659 83.9916C147.454 83.8996 147.24 83.8587 147.046 83.7923C146.678 83.6766 146.3 83.5979 145.917 83.5573L145.661 83.5216H144.966C144.727 83.518 144.487 83.5385 144.251 83.5829C144.046 83.6241 143.837 83.6463 143.628 83.6493C143.821 83.5692 144.024 83.5126 144.231 83.4807C144.469 83.4132 144.714 83.3772 144.961 83.3734H145.421H145.671L145.937 83.4041C146.333 83.4316 146.725 83.5001 147.107 83.6084C147.321 83.6621 147.533 83.7269 147.74 83.8025L148.384 84.0784C149.321 84.5413 150.183 85.1442 150.939 85.8665C152.296 87.1785 153.372 88.7533 154.101 90.495C154.231 90.7912 154.344 91.0949 154.438 91.4043C154.517 91.637 154.582 91.8741 154.632 92.1144C154.683 92.3067 154.716 92.5035 154.729 92.7019Z" fill="#263238"/>
<path d="M158.571 86.3824C158.281 85.6388 157.926 84.9225 157.509 84.2418C156.45 82.6259 154.866 81.4256 153.023 80.8445C150.862 80.1855 148.763 80.3898 147.296 80.5278L145.544 80.7372C145.332 80.7756 145.116 80.7944 144.9 80.7934C145.102 80.7146 145.314 80.6613 145.529 80.6351C145.937 80.5533 146.551 80.446 147.276 80.3439C149.212 80.0055 151.199 80.0891 153.1 80.5891C154.141 80.902 155.107 81.4234 155.94 82.1217C156.622 82.7013 157.206 83.388 157.667 84.155C157.983 84.6583 158.235 85.1989 158.418 85.7642C158.493 85.9637 158.544 86.1711 158.571 86.3824Z" fill="#263238"/>
<path d="M153.263 78.8266C150.509 78.1772 147.63 78.2902 144.936 79.1535C145.289 78.923 145.677 78.7505 146.085 78.6426C147.052 78.3454 148.053 78.1737 149.063 78.1318C150.074 78.0959 151.085 78.1886 152.072 78.4076C152.488 78.4871 152.889 78.6283 153.263 78.8266Z" fill="#263238"/>
<path d="M141.871 68.5734C141.912 68.5734 141.809 69.2937 141.728 70.4483C141.513 73.4056 141.769 76.3782 142.484 79.2557L142.3 79.317C142.09 78.7295 141.927 78.2493 141.82 77.9121C141.753 77.7477 141.705 77.5764 141.677 77.4012C141.781 77.5599 141.863 77.7317 141.922 77.9121C142.06 78.234 142.249 78.704 142.484 79.2864L142.3 79.3426C141.895 77.929 141.627 76.4801 141.498 75.0155C141.364 73.5004 141.378 71.976 141.539 70.4636C141.605 69.8863 141.682 69.4418 141.743 69.0996C141.76 68.919 141.803 68.7417 141.871 68.5734Z" fill="#263238"/>
<path d="M131.914 55.4695C131.914 55.4695 128.261 55.4695 127.802 59.8579C127.449 63.2296 127.802 66.4992 127.802 67.9808C127.802 69.4623 127.153 74.7089 127.153 74.7089C127.153 74.7089 124.66 76.921 124.701 79.5776C124.742 82.2341 126.642 83.0617 126.642 83.0617C126.323 83.8849 126.253 84.7835 126.44 85.6462C126.627 86.5089 127.063 87.2977 127.694 87.915C127.694 87.915 126.637 90.3621 127.505 92.002C128.006 92.8177 128.787 93.4226 129.702 93.7032C129.552 94.026 129.473 94.3773 129.471 94.7332C129.468 95.0891 129.542 95.4414 129.687 95.7664C129.833 96.0913 130.046 96.3813 130.313 96.6167C130.58 96.8521 130.894 97.0276 131.235 97.1312C132.462 97.5113 133.748 97.6688 135.031 97.5961L137.759 97.545L140.16 98.8732C140.16 98.8732 144.277 97.0801 144.38 94.6534L144.487 92.2268C144.487 92.2268 143.307 88.242 143.21 86.9648C143.113 85.6876 144.16 82.6377 143.526 81.2686C142.893 79.8994 140.681 79.0922 140.89 77.1816C141.1 75.2709 140.681 74.2083 139.731 73.1508C138.78 72.0933 134.586 69.9885 134.586 69.9885C134.586 69.9885 133.508 66.9233 133.508 64.8236C133.508 62.7239 135.608 56.2716 131.914 55.4695Z" fill="#FFBF9D"/>
<path d="M134.376 70.7855C134.062 71.0425 133.719 71.2619 133.354 71.4394C132.711 71.8175 131.822 72.3181 130.8 72.8597C129.778 73.4012 128.889 73.8814 128.246 74.2135C127.898 74.4238 127.528 74.5951 127.142 74.7243C127.455 74.4645 127.798 74.2432 128.164 74.0653C128.808 73.6873 129.696 73.1866 130.718 72.6451C131.74 72.1036 132.629 71.6234 133.273 71.2913C133.62 71.0809 133.99 70.9112 134.376 70.7855Z" fill="#FF9A6C"/>
<path d="M136.777 79.0463C136.777 79.0463 136.675 79.1638 136.456 79.3324C136.151 79.5718 135.833 79.7951 135.505 80.0016C134.427 80.6929 133.28 81.2716 132.082 81.7283C130.885 82.1927 129.644 82.535 128.379 82.7501C127.868 82.8267 127.495 82.8727 127.224 82.888C127.082 82.9146 126.937 82.9146 126.795 82.888C126.795 82.8472 127.388 82.7654 128.328 82.5662C129.567 82.3057 130.785 81.9505 131.97 81.5036C133.152 81.0461 134.297 80.496 135.393 79.8586C135.84 79.5644 136.302 79.2933 136.777 79.0463Z" fill="#FF9A6C"/>
<path d="M139.915 76.4153C139.981 76.4408 139.843 76.9262 139.404 77.2991C138.964 77.672 138.494 77.7844 138.479 77.718C138.464 77.6516 138.842 77.4575 139.225 77.0999C139.608 76.7422 139.843 76.3846 139.915 76.4153Z" fill="#FF9A6C"/>
<path d="M138.407 86.2751C137.916 86.5135 137.403 86.7018 136.875 86.8371C135.618 87.2111 134.338 87.5029 133.043 87.7107C131.748 87.9217 130.441 88.0446 129.13 88.0785C128.586 88.1205 128.04 88.1033 127.5 88.0274C128.037 87.9511 128.577 87.9067 129.119 87.8946C130.141 87.8231 131.495 87.6903 133.002 87.4502C134.509 87.21 135.853 86.8984 136.823 86.6532C137.344 86.4965 137.872 86.3702 138.407 86.2751Z" fill="#FF9A6C"/>
<path d="M141.748 85.6877C141.826 85.4216 141.92 85.1606 142.029 84.906C142.232 84.282 142.3 83.622 142.229 82.9698C142.147 82.318 141.924 81.692 141.575 81.1358C141.409 80.9137 141.257 80.6816 141.12 80.441C141.12 80.4155 141.411 80.6045 141.733 81.0285C142.146 81.5889 142.407 82.247 142.489 82.9384C142.572 83.6297 142.473 84.3306 142.203 84.9724C141.994 85.4373 141.774 85.6877 141.748 85.6877Z" fill="#FF9A6C"/>
<path d="M138.612 93.6725C138.193 93.8268 137.757 93.9297 137.314 93.979C136.253 94.1465 135.18 94.2302 134.106 94.2294C133.029 94.2275 131.954 94.1369 130.892 93.9586C130.449 93.9085 130.013 93.8039 129.595 93.647C130.038 93.6548 130.481 93.6975 130.918 93.7747C131.976 93.8943 133.041 93.9574 134.106 93.9637C135.169 93.9615 136.231 93.9035 137.288 93.79C137.726 93.7157 138.168 93.6764 138.612 93.6725Z" fill="#FF9A6C"/>
<path d="M132.113 64.8747C132.113 64.9053 131.944 65.0433 131.602 65.1659C131.151 65.3164 130.673 65.3652 130.201 65.3087C129.73 65.2521 129.276 65.0917 128.874 64.8389C128.567 64.6397 128.424 64.466 128.445 64.4404C129.01 64.7241 129.612 64.927 130.233 65.0433C130.864 65.0769 131.497 65.0201 132.113 64.8747Z" fill="#FF9A6C"/>
<path d="M142.505 85.9789C142.551 86.1047 142.571 86.2384 142.566 86.3722C142.566 86.7353 142.523 87.0972 142.438 87.4502C142.341 87.8946 142.172 88.4106 142.009 88.9828C141.811 89.5815 141.747 90.2162 141.82 90.8424C141.907 91.4912 142.392 92.0123 142.469 92.6713C142.521 93.2284 142.378 93.7863 142.065 94.2499C141.875 94.5573 141.654 94.8449 141.406 95.1082C141.232 95.2972 141.125 95.3892 141.11 95.3789C141.095 95.3687 141.462 94.9294 141.902 94.158C142.166 93.723 142.279 93.213 142.224 92.7071C142.162 92.1502 141.672 91.6291 141.554 90.8884C141.477 90.2229 141.552 89.5485 141.774 88.9164C141.953 88.3391 142.137 87.8334 142.254 87.3838C142.372 86.9223 142.456 86.4527 142.505 85.9789Z" fill="#FF9A6C"/>
<path d="M143.879 89.1871C143.962 89.3369 144.021 89.499 144.053 89.6673C144.144 89.979 144.267 90.4388 144.38 91.0109C144.518 91.6841 144.6 92.3676 144.625 93.0544C144.669 93.9133 144.511 94.7705 144.165 95.5577C143.763 96.3115 143.23 96.9878 142.591 97.5552C142.083 98.0182 141.542 98.4433 140.972 98.8273C140.487 99.1594 140.078 99.4046 139.792 99.563C139.651 99.6581 139.498 99.7338 139.337 99.7877C139.312 99.752 139.925 99.3637 140.87 98.674C141.418 98.2752 141.94 97.8418 142.433 97.3764C143.04 96.8212 143.548 96.1664 143.935 95.4402C144.262 94.6887 144.418 93.8736 144.39 93.0544C144.378 92.3782 144.316 91.7037 144.206 91.0365C144.007 89.8972 143.838 89.1974 143.879 89.1871Z" fill="#263238"/>
<path d="M105.333 72.1802C105.121 72.0551 104.922 71.9078 104.74 71.7408L103.208 70.4585L102.145 69.5645C101.964 69.3946 101.761 69.2486 101.542 69.1302C101.436 69.076 101.319 69.0477 101.2 69.0477C101.081 69.0477 100.964 69.076 100.858 69.1302C100.419 69.3601 100.122 69.9221 99.7493 70.3921C99.3763 70.8621 99.0085 71.4138 98.6202 71.9247C98.0072 72.7523 97.4095 73.5442 96.8628 74.2798L96.5308 74.7192L96.638 74.1777C96.9309 72.6584 97.3566 71.1677 97.9101 69.7229C98.1145 69.212 98.2984 68.7726 98.421 68.4917C98.4785 68.3407 98.5558 68.1981 98.6509 68.0676C98.6158 68.2235 98.5662 68.3757 98.5027 68.5223C98.3954 68.8135 98.2371 69.2375 98.0532 69.7791C97.5536 71.2313 97.1626 72.7186 96.8833 74.2288L96.6534 74.1266L98.4057 71.7663L99.5347 70.2337L100.076 69.5134C100.248 69.2575 100.48 69.0471 100.751 68.9004C100.893 68.8381 101.047 68.809 101.202 68.8152C101.357 68.8214 101.508 68.8627 101.645 68.9361C101.877 69.0668 102.091 69.2265 102.283 69.4112L103.305 70.3308L104.797 71.6744C104.989 71.8286 105.168 71.9977 105.333 72.1802Z" fill="#263238"/>
<path d="M126.903 67.8632C126.843 67.9304 126.776 67.9904 126.703 68.042L126.1 68.512L123.848 70.203L116.333 75.7358L116.22 75.8175L116.144 75.7C116.082 75.608 116.021 75.5059 115.955 75.4088L112.184 69.452L112.322 69.498C110.869 70.0751 109.468 70.7741 108.133 71.5875C107.653 71.8787 107.28 72.0984 107.024 72.2874C106.9 72.3809 106.767 72.4614 106.626 72.5275C106.734 72.4148 106.854 72.3137 106.984 72.2261C107.229 72.0473 107.592 71.7867 108.067 71.4751C109.385 70.6172 110.78 69.8851 112.235 69.2885L112.322 69.2528L112.373 69.3294C113.482 71.0511 114.785 73.0894 116.179 75.2658C116.246 75.3628 116.307 75.465 116.368 75.557L116.174 75.5212L123.74 70.0549L126.039 68.4252L126.673 67.996C126.821 67.899 126.897 67.853 126.903 67.8632Z" fill="#263238"/>
<path d="M81.0513 88.1807C81.0746 88.2984 81.0849 88.4183 81.0819 88.5383C81.0819 88.8039 81.0819 89.1462 81.1075 89.56C81.1075 90.4847 81.1534 91.7772 81.179 93.3609C81.2403 96.5692 81.368 101.024 81.5366 105.903C81.7052 110.782 81.8023 115.236 81.8125 118.45C81.8125 120.059 81.8125 121.357 81.8125 122.256C81.8125 122.68 81.8125 123.027 81.7869 123.278C81.7925 123.399 81.7839 123.521 81.7614 123.64C81.754 123.52 81.754 123.398 81.7614 123.278C81.7614 123.017 81.7614 122.67 81.7307 122.256C81.7307 121.326 81.6899 120.034 81.6592 118.455C81.603 115.242 81.4702 110.792 81.3067 105.908C81.1432 101.024 81.041 96.5743 81.0308 93.3609C81.0308 91.7568 81.0308 90.454 81.0308 89.56C81.0308 89.1309 81.0308 88.7886 81.0308 88.5383C81.03 88.4188 81.0368 88.2993 81.0513 88.1807Z" fill="#263238"/>
<path d="M105.502 134.323C105.485 134.277 105.475 134.229 105.471 134.18C105.471 134.067 105.471 133.924 105.425 133.745C105.384 133.342 105.328 132.785 105.262 132.075C105.119 130.624 104.955 128.499 104.792 125.919C104.628 123.339 104.49 120.212 104.403 116.769C104.317 113.326 104.306 109.53 104.403 105.53C104.501 101.53 104.679 97.7647 104.914 94.3265C105.149 90.8883 105.425 87.7925 105.701 85.2023C105.977 82.6122 106.212 80.5125 106.437 79.0719C106.539 78.3617 106.616 77.81 106.672 77.4115C106.702 77.2327 106.723 77.0897 106.743 76.9773C106.746 76.9283 106.756 76.88 106.774 76.8342C106.782 76.8833 106.782 76.9333 106.774 76.9824C106.774 77.0948 106.748 77.2378 106.733 77.4166C106.687 77.8151 106.626 78.372 106.544 79.0821C106.37 80.533 106.146 82.6275 105.895 85.2125C105.645 87.7976 105.384 90.8986 105.165 94.3367C104.945 97.7749 104.776 101.56 104.684 105.535C104.593 109.51 104.618 113.295 104.684 116.739C104.751 120.182 104.879 123.278 105.022 125.878C105.165 128.478 105.292 130.588 105.405 132.039C105.451 132.749 105.492 133.311 105.517 133.715C105.517 133.894 105.517 134.037 105.543 134.149C105.534 134.208 105.52 134.266 105.502 134.323Z" fill="#263238"/>
<path d="M90.2774 50.703L89.7359 51.0606L88.142 52.0824C87.437 52.537 86.6094 53.1859 85.6387 53.9011C85.1278 54.2689 84.6578 54.7134 84.1061 55.1629L83.2734 55.8628C82.9873 56.108 82.7165 56.3737 82.4253 56.6547C79.5998 59.2905 77.1178 62.2719 75.0381 65.5285L74.1287 66.9896C73.8069 67.475 73.5617 68.0114 73.2654 68.5223C72.969 69.0331 72.6779 69.5849 72.4122 70.1468C72.1465 70.7088 71.9013 71.2861 71.6255 71.8685C71.4977 72.1597 71.3547 72.4458 71.2321 72.7472C71.1095 73.0486 71.0022 73.3551 70.8847 73.6667C70.6548 74.2798 70.4096 74.898 70.1848 75.5365C69.8067 76.8291 69.3265 78.1369 69.0404 79.5316C67.584 85.566 67.3409 91.8296 68.3252 97.9588C69.606 105.851 72.911 113.277 77.9177 119.512C82.9243 125.746 89.4616 130.576 96.8917 133.531C104.322 136.485 112.391 137.463 120.312 136.369C128.232 135.275 135.734 132.146 142.085 127.288C143.688 126.055 145.214 124.725 146.652 123.303L147.674 122.22C148.021 121.862 148.359 121.5 148.696 121.117L149.666 119.998C149.973 119.61 150.274 119.221 150.581 118.838C155.202 112.886 158.285 105.887 159.557 98.4594C159.856 96.735 160.059 94.9954 160.165 93.2485C160.216 92.3851 160.216 91.532 160.247 90.6941C160.277 89.8563 160.185 89.0032 160.155 88.1704C160.155 87.7566 160.119 87.3377 160.104 86.9239C160.088 86.5101 160.012 86.1065 159.971 85.6978C159.869 84.8855 159.771 84.0783 159.674 83.2814C159.577 82.4844 159.368 81.7079 159.215 80.9314C159.086 80.1613 158.916 79.399 158.704 78.6478L158.07 76.4357C157.971 76.0728 157.85 75.7163 157.708 75.368C157.575 75.0155 157.442 74.663 157.314 74.3156C157.043 73.6259 156.803 72.9209 156.512 72.2721C156.221 71.6233 155.904 70.9642 155.603 70.3256C153.381 65.7069 150.4 61.4933 146.785 57.8603C144.046 55.1386 140.989 52.7562 137.681 50.7643L135.73 49.6455C135.435 49.4728 135.132 49.3159 134.82 49.1755L133.962 48.7668L132.43 48.0414C131.97 47.8064 131.515 47.6735 131.132 47.5305L129.354 46.8459L128.751 46.6007L129.364 46.8204L131.147 47.4845C131.536 47.6378 131.99 47.7706 132.455 47.9954L133.988 48.7106L134.851 49.1193C135.164 49.2562 135.469 49.4096 135.766 49.5791L137.722 50.6928C141.052 52.6721 144.128 55.0498 146.882 57.7735C150.519 61.4039 153.521 65.6193 155.761 70.2439C156.063 70.8927 156.369 71.5415 156.681 72.2057C156.992 72.8698 157.192 73.5697 157.488 74.2491L157.886 75.3015C158.029 75.6516 158.15 76.0098 158.249 76.3744C158.464 77.11 158.678 77.8457 158.893 78.5967C159.114 79.3507 159.293 80.1165 159.429 80.8905C159.582 81.667 159.766 82.4231 159.899 83.2456C160.032 84.0681 160.093 84.86 160.195 85.6774C160.241 86.0861 160.308 86.4948 160.333 86.9086C160.359 87.3224 160.369 87.7413 160.384 88.1602C160.415 88.998 160.461 89.841 160.482 90.7146C160.502 91.5882 160.456 92.426 160.4 93.2689C159.878 102.621 156.523 111.592 150.78 118.991L149.85 120.156L148.869 121.285C148.553 121.668 148.21 122.036 147.848 122.394L146.826 123.487C145.379 124.917 143.843 126.255 142.228 127.492C135.846 132.371 128.31 135.512 120.352 136.611C112.395 137.709 104.289 136.727 96.8246 133.76C89.3599 130.794 82.7913 125.943 77.759 119.682C72.7268 113.421 69.4026 105.963 68.1107 98.0354C67.5923 94.8396 67.421 91.5972 67.5998 88.3646C67.7286 85.3829 68.1582 82.4218 68.8821 79.5265C69.1682 78.1267 69.6535 76.8188 70.0315 75.5161C70.2614 74.8826 70.5118 74.2594 70.7468 73.6412C70.8643 73.3347 70.9818 73.0282 71.0941 72.7216C71.2065 72.4151 71.3649 72.1341 71.4926 71.8378C71.7634 71.2554 72.0035 70.6833 72.2845 70.1162C72.5655 69.5491 72.8669 69.0229 73.1479 68.4865C73.4288 67.9501 73.6945 67.4188 74.0163 66.9283L74.9359 65.4672C77.0266 62.2056 79.5282 59.2266 82.3793 56.6036C82.6705 56.3328 82.9413 56.057 83.2274 55.8117L84.0652 55.1118C84.6169 54.6674 85.087 54.228 85.5978 53.8602C86.594 53.145 87.4114 52.5064 88.1215 52.0568L89.7308 51.0351C90.0782 50.8103 90.2774 50.703 90.2774 50.703Z" fill="#263238"/>
<defs>
<linearGradient id="paint0_linear_158_5185" x1="119.248" y1="114.09" x2="104.315" y2="114.09" gradientUnits="userSpaceOnUse">
<stop stop-color="#EEBE4B"/>
<stop offset="0.553305" stop-color="#D64E56"/>
<stop offset="1" stop-color="#AA2F6A"/>
</linearGradient>
<linearGradient id="paint1_linear_158_5185" x1="126.303" y1="106.192" x2="119.269" y2="106.192" gradientUnits="userSpaceOnUse">
<stop stop-color="#EEBE4B"/>
<stop offset="0.553305" stop-color="#D64E56"/>
<stop offset="1" stop-color="#AA2F6A"/>
</linearGradient>
<linearGradient id="paint2_linear_158_5185" x1="125.716" y1="113.084" x2="104.683" y2="113.084" gradientUnits="userSpaceOnUse">
<stop stop-color="#EEBE4B"/>
<stop offset="0.553305" stop-color="#D64E56"/>
<stop offset="1" stop-color="#AA2F6A"/>
</linearGradient>
<linearGradient id="paint3_linear_158_5185" x1="88.54" y1="124.677" x2="80.3916" y2="124.677" gradientUnits="userSpaceOnUse">
<stop stop-color="#EEBE4B"/>
<stop offset="0.553305" stop-color="#D64E56"/>
<stop offset="1" stop-color="#AA2F6A"/>
</linearGradient>
<linearGradient id="paint4_linear_158_5185" x1="91.6723" y1="138.723" x2="83.5239" y2="138.723" gradientUnits="userSpaceOnUse">
<stop stop-color="#EEBE4B"/>
<stop offset="0.553305" stop-color="#D64E56"/>
<stop offset="1" stop-color="#AA2F6A"/>
</linearGradient>
<linearGradient id="paint5_linear_158_5185" x1="94.8801" y1="153.13" x2="86.7368" y2="153.13" gradientUnits="userSpaceOnUse">
<stop stop-color="#EEBE4B"/>
<stop offset="0.553305" stop-color="#D64E56"/>
<stop offset="1" stop-color="#AA2F6A"/>
</linearGradient>
<linearGradient id="paint6_linear_158_5185" x1="159.353" y1="178.615" x2="112.619" y2="178.615" gradientUnits="userSpaceOnUse">
<stop stop-color="#EEBE4B"/>
<stop offset="0.553305" stop-color="#D64E56"/>
<stop offset="1" stop-color="#AA2F6A"/>
</linearGradient>
<linearGradient id="paint7_linear_158_5185" x1="114.493" y1="182.135" x2="67.7583" y2="182.135" gradientUnits="userSpaceOnUse">
<stop stop-color="#EEBE4B"/>
<stop offset="0.553305" stop-color="#D64E56"/>
<stop offset="1" stop-color="#AA2F6A"/>
</linearGradient>
<linearGradient id="paint8_linear_158_5185" x1="189.648" y1="90.5587" x2="38.3428" y2="90.5587" gradientUnits="userSpaceOnUse">
<stop stop-color="#EEBE4B"/>
<stop offset="0.553305" stop-color="#D64E56"/>
<stop offset="1" stop-color="#AA2F6A"/>
</linearGradient>
</defs>
</svg>
