<svg width="22" height="22" viewBox="0 0 22 22" fill="none" xmlns="http://www.w3.org/2000/svg">
<path opacity="0.987" fill-rule="evenodd" clip-rule="evenodd" d="M9.80483 0.59552C10.8923 0.47402 11.5358 0.47402 12.7043 0.59552C14.7727 0.901662 16.6902 1.85775 18.1793 3.32552C17.173 4.27672 16.1799 5.24182 15.2003 6.22052C13.3243 4.63052 11.2303 4.26352 8.91833 5.11952C7.22233 5.89952 6.04133 7.16352 5.37533 8.91152C4.28699 8.10127 3.21283 7.27214 2.15333 6.42452C2.0797 6.38576 1.9956 6.37157 1.91333 6.38402C3.59633 3.13902 6.22633 1.20902 9.80333 0.594019" fill="#F44336"/>
<path opacity="0.997" fill-rule="evenodd" clip-rule="evenodd" d="M1.91034 6.38393C1.99534 6.37093 2.07585 6.38443 2.15185 6.42443C3.21134 7.27205 4.28551 8.10118 5.37384 8.91143C5.20258 9.59252 5.09462 10.288 5.05134 10.9889C5.08834 11.6669 5.19584 12.3324 5.37384 12.9854L1.99134 15.6779C0.518345 12.5999 0.491345 9.50193 1.91034 6.38393Z" fill="#FFC107"/>
<path opacity="0.999" fill-rule="evenodd" clip-rule="evenodd" d="M18.0188 18.939C16.9656 18.0102 15.863 17.1389 14.7158 16.329C15.8658 15.517 16.5638 14.403 16.8098 12.987H11.1743V9.07351C14.4243 9.04651 17.6728 9.07401 20.9198 9.15601C21.5358 12.501 20.8243 15.517 18.7853 18.204C18.5429 18.4617 18.286 18.7071 18.0188 18.939Z" fill="#448AFF"/>
<path opacity="0.993" fill-rule="evenodd" clip-rule="evenodd" d="M5.37396 12.9871C6.60396 16.0441 8.85896 17.4711 12.139 17.2681C13.0597 17.1615 13.9425 16.8398 14.716 16.3291C15.864 17.1411 16.965 18.0111 18.019 18.9391C16.3489 20.4397 14.2196 21.3302 11.9785 21.4651C11.4693 21.5058 10.9576 21.5058 10.4485 21.4651C6.63046 21.0151 3.81146 19.0861 1.99146 15.6781L5.37396 12.9871Z" fill="#43A047"/>
</svg>
